<?xml version="1.0" standalone="no"?>
<!DOCTYPE svg PUBLIC "-//W3C//DTD SVG 20010904//EN"
 "http://www.w3.org/TR/2001/REC-SVG-20010904/DTD/svg10.dtd">
<svg version="1.0" xmlns="http://www.w3.org/2000/svg"
 width="1414.000000pt" height="2000.000000pt" viewBox="0 0 1414.000000 2000.000000"
 preserveAspectRatio="xMidYMid meet">

<g transform="translate(0.000000,2000.000000) scale(0.100000,-0.100000)"
fill="#000000" stroke="none">
<path d="M0 10000 l0 -10000 4103 1 c2256 1 4094 3 4084 6 -10 3 -22 16 -27
29 -6 14 -18 24 -30 24 -16 0 -20 7 -20 30 0 30 13 37 39 21 7 -5 10 -14 7
-20 -5 -7 5 -11 28 -11 19 0 38 -5 41 -10 3 -6 12 -10 18 -10 7 1 1 10 -13 21
l-24 21 24 19 c20 15 22 19 8 19 -10 0 -18 5 -18 10 0 6 -7 10 -15 10 -9 0
-18 7 -21 15 -4 8 -15 15 -25 15 -10 0 -19 5 -19 10 0 6 9 10 20 10 22 0 27
15 9 26 -8 4 -7 9 2 15 8 4 15 20 16 34 2 22 -2 25 -33 25 -43 0 -44 13 -1 34
17 8 26 16 18 16 -10 0 -12 13 -9 57 3 32 1 68 -3 81 -7 17 -4 27 11 42 26 26
26 44 0 37 -33 -8 -32 9 1 37 17 15 27 31 23 37 -12 20 -13 103 -1 111 8 5 6
12 -7 26 -17 19 -17 21 1 30 16 10 14 13 -20 27 -38 16 -38 16 -23 40 15 23
15 25 -1 25 -16 0 -16 1 -1 16 13 13 19 14 36 3 17 -10 23 -10 36 0 20 17 20
31 0 31 -31 0 -6 25 35 35 24 6 46 17 50 25 4 8 7 47 7 85 -1 70 -1 70 -30 71
-15 1 -46 -7 -67 -17 -42 -21 -69 -24 -69 -9 0 6 11 10 25 10 14 0 25 4 25 8
0 5 16 16 37 26 l36 17 -27 14 c-15 8 -30 14 -34 14 -22 -4 -22 4 3 28 15 15
33 40 41 55 20 39 44 26 44 -23 0 -33 4 -41 26 -49 37 -14 53 -12 24 3 -21 11
-25 20 -24 55 0 23 -4 42 -9 42 -11 0 -1 60 15 96 17 37 27 11 23 -60 -4 -66
5 -91 34 -101 12 -4 17 -12 14 -24 -3 -11 0 -29 7 -41 8 -16 8 -25 0 -35 -7
-9 -8 -15 -1 -19 6 -4 8 -12 5 -19 -2 -7 -5 -34 -7 -61 -2 -40 0 -50 15 -54
10 -2 18 -12 18 -22 0 -10 7 -23 15 -30 8 -7 15 -17 15 -22 0 -5 6 -16 14 -23
28 -29 42 -160 52 -480 6 -214 6 -224 -3 -238 -4 -6 -5 -32 -4 -58 1 -26 -2
-50 -8 -54 -6 -3 -11 -26 -11 -50 0 -25 -5 -45 -12 -48 -7 -3 1262 -6 2820 -6
l2832 -1 0 10000 0 10000 -7070 0 -7070 0 0 -10000z m2569 7730 c76 -39 115
-107 115 -200 0 -136 -87 -224 -224 -224 -137 0 -223 87 -224 225 0 53 5 74
27 112 30 51 86 94 139 108 46 11 124 2 167 -21z m-591 -1 c54 -26 77 -72 69
-137 -5 -45 -47 -102 -74 -102 -19 0 -17 -6 32 -91 25 -43 45 -81 45 -84 0 -3
-28 -5 -62 -3 l-62 3 -42 75 c-23 41 -47 76 -53 78 -7 2 -11 -23 -11 -77 l0
-81 -57 0 -58 0 3 220 3 220 111 0 c94 0 119 -3 156 -21z m1012 -64 l0 -85 80
0 80 0 0 85 0 85 60 0 60 0 0 -220 0 -220 -60 0 -60 0 0 90 0 90 -80 0 -80 0
0 -90 0 -90 -55 0 -55 0 0 220 0 220 55 0 55 0 0 -85z m819 -122 c41 -115 76
-214 79 -220 3 -10 -12 -13 -55 -13 -59 0 -60 1 -69 33 l-10 32 -84 0 -84 0
-10 -32 c-9 -32 -10 -33 -69 -33 -43 0 -58 3 -55 13 3 6 38 105 79 219 l74
208 65 0 65 0 74 -207z m448 101 c110 -172 102 -170 103 -21 l0 127 55 0 55 0
0 -220 0 -220 -55 0 -55 0 -82 125 -83 125 -3 -125 -3 -125 -54 0 -55 0 0 220
0 220 54 0 55 0 68 -106z m3133 -302 c0 -9 -10 -22 -22 -27 -14 -6 -24 -21
-26 -37 -3 -25 0 -28 27 -28 24 0 31 -4 31 -20 0 -16 -7 -20 -30 -20 l-30 0 0
-120 0 -120 -29 0 c-24 0 -28 4 -28 28 1 155 -4 212 -18 212 -8 0 -15 9 -15
20 0 11 7 20 15 20 8 0 17 12 21 28 13 63 29 78 82 81 15 1 22 -5 22 -17z
m3820 -182 l0 -190 -30 0 -30 0 0 190 0 190 30 0 30 0 0 -190z m-4589 141 c16
-16 29 -37 29 -45 0 -23 -42 -20 -62 4 -39 45 -118 28 -118 -25 0 -29 24 -46
97 -70 113 -36 127 -137 26 -186 -67 -32 -145 -11 -171 47 -18 37 -15 44 18
44 17 0 30 -5 30 -12 0 -23 34 -48 65 -48 42 0 68 20 68 54 0 34 -22 50 -93
69 -70 20 -95 46 -95 99 0 33 6 45 33 69 27 25 41 29 88 29 48 0 59 -4 85 -29z
m434 6 c75 -42 108 -153 71 -240 -31 -75 -122 -117 -206 -97 -74 18 -140 100
-140 174 0 69 48 147 105 172 48 21 124 17 170 -9z m2737 -4 c49 -28 78 -86
78 -156 0 -69 -17 -106 -67 -144 -33 -26 -45 -28 -135 -31 l-98 -4 0 182 0
183 94 -5 c69 -4 103 -10 128 -25z m-2212 -18 c0 -33 2 -35 35 -35 28 0 35 -4
35 -20 0 -16 -7 -20 -35 -20 l-35 0 0 -88 c0 -93 8 -112 46 -112 13 0 24 -8
27 -20 5 -18 0 -20 -43 -20 -70 0 -80 18 -80 142 0 91 -1 98 -20 98 -13 0 -20
7 -20 20 0 13 7 20 20 20 16 0 20 7 20 35 0 31 3 35 25 35 22 0 25 -4 25 -35z
m875 -45 c47 -24 49 -24 41 -5 -4 11 2 15 24 15 l30 0 0 -140 0 -140 -25 0
c-18 0 -25 5 -25 20 l0 21 -28 -21 c-40 -30 -90 -35 -132 -13 -104 54 -108
212 -6 263 51 25 72 25 121 0z m383 -7 c-2 -20 -10 -29 -33 -35 -47 -12 -55
-32 -55 -135 0 -93 0 -93 -25 -93 l-25 0 0 140 0 140 25 0 c16 0 25 -6 25 -16
0 -13 5 -12 26 5 39 31 66 28 62 -6z m305 13 c42 -17 67 -47 76 -88 14 -66 12
-68 -110 -68 -121 0 -132 -8 -84 -55 33 -34 87 -34 121 0 24 24 74 35 74 16 0
-22 -55 -72 -91 -82 -51 -16 -104 0 -144 41 -23 24 -30 41 -33 88 -5 77 15
117 71 143 50 22 77 24 120 5z m1062 -10 c35 -23 56 -59 62 -106 l6 -40 -117
0 c-64 0 -116 -2 -116 -5 0 -4 7 -19 15 -34 24 -47 101 -57 133 -16 19 24 72
36 72 16 0 -21 -53 -70 -86 -81 -123 -41 -226 91 -167 214 32 68 133 94 198
52z m761 -3 c33 -21 54 -64 54 -108 l0 -35 -110 0 c-122 0 -133 -8 -85 -55 33
-34 87 -34 121 0 28 28 64 33 64 9 0 -28 -54 -71 -97 -79 -136 -22 -221 136
-132 249 36 46 129 56 185 19z m582 7 c33 -15 47 -29 62 -62 25 -54 25 -82 0
-136 -34 -74 -137 -103 -207 -57 -98 65 -77 232 33 265 45 13 65 11 112 -10z
m442 -8 c41 -30 62 -80 56 -136 -13 -115 -126 -171 -211 -105 l-25 20 0 -90
c0 -90 0 -91 -25 -91 l-25 0 0 210 0 210 25 0 c19 0 25 -5 25 -22 0 -20 1 -20
18 -5 44 40 114 44 162 9z m376 8 c46 -23 74 -67 74 -119 l0 -31 -110 0 c-102
0 -110 -1 -110 -19 0 -28 47 -61 86 -61 24 0 41 8 56 25 24 28 68 34 68 9 0
-25 -56 -71 -95 -78 -19 -4 -52 -2 -74 4 -103 28 -135 171 -55 246 50 47 97
54 160 24z m344 -10 c0 -25 -4 -30 -24 -30 -51 0 -70 -49 -64 -164 l3 -66 -27
0 -28 0 0 140 0 140 25 0 c15 0 25 -6 25 -15 0 -12 6 -11 33 5 44 28 57 25 57
-10z m-4890 -52 c12 -40 27 -91 34 -113 l13 -40 8 35 c4 19 18 70 32 113 23
74 26 78 51 75 25 -3 29 -11 58 -113 l31 -110 13 45 c6 25 20 74 29 110 16 58
21 65 45 68 25 3 27 1 20 -20 -4 -13 -23 -75 -43 -138 -36 -111 -38 -115 -65
-115 -28 0 -30 3 -60 104 l-31 104 -33 -107 c-31 -100 -34 -106 -60 -106 -26
0 -29 5 -66 128 -22 70 -42 133 -44 140 -3 7 5 12 22 12 23 0 27 -7 46 -72z
m2643 -41 c22 -59 42 -105 44 -103 3 3 22 51 43 108 34 93 40 103 65 106 32 4
33 11 -34 -160 -44 -115 -46 -118 -76 -118 -29 0 -31 3 -77 123 -68 175 -65
159 -33 155 26 -3 32 -12 68 -111z m-8683 -62 l0 -95 105 0 104 0 3 93 3 92
30 0 30 0 3 -217 2 -218 -35 0 -35 0 0 95 0 95 -105 0 -105 0 0 -95 0 -95 -32
0 -33 0 2 217 c2 120 3 219 3 221 0 1 14 2 30 2 l30 0 0 -95z m833 59 c58 -41
92 -111 91 -189 -2 -130 -90 -219 -219 -219 -146 0 -242 119 -215 266 13 68
54 125 110 155 38 20 56 23 118 20 61 -3 80 -9 115 -33z m398 -144 c35 -99 66
-180 69 -180 3 0 32 73 64 163 32 89 63 170 68 180 10 20 73 25 66 5 -3 -7
-40 -106 -83 -220 l-78 -208 -36 0 -37 0 -79 211 c-44 117 -81 216 -83 220 -2
5 12 9 30 9 l34 0 65 -180z m666 168 c10 -13 154 -407 153 -420 0 -5 -13 -8
-29 -8 -26 0 -32 6 -47 45 l-17 46 -95 -3 -95 -3 -15 -42 c-12 -39 -17 -43
-47 -43 l-34 0 18 53 c11 28 44 122 75 207 31 85 59 161 61 168 2 6 17 12 33
12 16 0 34 -6 39 -12z m423 -183 l0 -195 75 0 c73 0 75 -1 75 -25 l0 -25 -107
0 -108 0 2 217 c2 120 3 219 3 221 0 1 14 2 30 2 l30 0 0 -195z m921 -1673 c7
-15 15 -31 18 -36 2 -5 0 -7 -5 -5 -5 3 -21 11 -36 19 -16 7 -28 19 -28 27 0
7 -7 13 -16 13 -8 0 -13 4 -10 8 11 18 64 0 77 -26z m-316 -2 c-3 -5 -21 -10
-38 -9 -27 0 -29 2 -12 9 28 12 57 12 50 0z m235 -4 c0 -8 6 -16 13 -19 6 -2
3 -2 -8 0 -11 3 -29 5 -40 6 -11 1 -26 7 -33 14 -11 11 -6 13 27 13 29 0 41
-4 41 -14z m-280 -46 c0 -5 -9 -10 -20 -10 -11 0 -20 5 -20 10 0 6 9 10 20 10
11 0 20 -4 20 -10z m668 0 c6 0 12 -5 12 -11 0 -5 -4 -7 -10 -4 -5 3 -10 1
-10 -4 0 -6 7 -11 15 -11 8 0 12 -6 9 -14 -3 -8 4 -24 15 -35 12 -12 21 -31
21 -43 1 -13 7 -34 15 -48 8 -14 14 -38 15 -54 0 -28 -1 -29 -20 -11 -11 10
-22 26 -25 36 -4 11 -13 19 -22 19 -20 0 -9 -49 15 -68 10 -8 18 -28 19 -52
l1 -40 -43 48 c-28 30 -48 63 -55 92 -39 156 -45 171 -64 164 -12 -4 -13 -11
-4 -29 13 -29 -15 -65 -52 -66 -19 0 -15 -4 18 -14 52 -16 72 -32 72 -56 0
-18 -2 -19 -30 -4 -36 18 -40 5 -10 -32 11 -14 20 -37 20 -50 0 -22 -7 -17
-63 40 -55 57 -64 72 -75 124 -20 97 -18 102 26 96 21 -3 55 0 76 6 31 8 43 7
60 -4 25 -18 45 -20 28 -3 -21 21 -15 41 11 34 12 -3 28 -6 35 -6z m-440 -56
c2 -1 -1 -5 -7 -8 -5 -4 -15 4 -22 16 -12 22 -11 22 7 8 10 -8 20 -15 22 -16z
m143 -44 c15 0 10 -20 -6 -26 -8 -3 -21 1 -30 9 -8 8 -20 17 -26 19 -7 2 -13
19 -14 37 l-2 33 34 -36 c19 -20 38 -36 44 -36z m-50 -30 c11 0 11 -2 1 -8 -9
-6 -4 -16 19 -38 42 -40 55 -64 38 -74 -10 -7 -7 -17 12 -47 30 -46 28 -86 -4
-81 -16 2 -22 10 -22 28 0 24 -3 25 -58 25 -46 0 -58 4 -63 17 -3 10 -16 21
-30 24 -16 4 -24 13 -24 28 0 11 -3 30 -6 42 -4 15 1 23 20 32 29 13 32 10 66
-62 14 -30 26 -44 28 -35 3 7 9 16 13 19 12 8 -21 89 -53 131 -40 51 -34 66
11 30 21 -17 45 -31 52 -31z m-695 8 c-4 -18 -11 -34 -16 -36 -6 -2 -10 -13
-11 -25 0 -14 -5 -7 -13 18 -14 48 -24 37 -34 -37 l-7 -53 -5 50 c-7 62 0 78
42 98 46 23 51 21 44 -15z m-123 -24 c-2 -7 -13 -10 -24 -7 -18 5 -17 13 5 41
8 11 11 10 17 -5 3 -10 4 -23 2 -29z m294 -28 c1 -1 0 -12 -4 -24 -3 -15 -13
-22 -29 -22 -13 0 -27 -7 -32 -16 -11 -19 -32 -11 -32 12 0 26 51 65 74 58 12
-4 22 -7 23 -8z m349 -68 c16 -31 19 -78 5 -78 -5 0 -19 12 -30 28 -12 15 -26
34 -33 42 -13 14 -19 58 -10 73 6 11 50 -31 68 -65z m904 49 c0 -7 11 -23 25
-35 16 -14 22 -27 18 -38 -4 -12 -3 -15 6 -10 14 9 40 -20 41 -46 0 -10 4 -18
8 -18 5 0 9 -31 9 -70 0 -55 -3 -70 -15 -70 -12 0 -14 11 -8 61 6 58 4 62 -22
88 -16 14 -40 52 -55 85 -31 66 -31 66 -17 66 6 0 10 -6 10 -13z m-1070 -58
c7 -11 9 -27 6 -36 -9 -22 -36 3 -36 33 0 30 16 31 30 3z m477 -64 c15 -25 34
-45 41 -45 16 0 83 -71 79 -84 -2 -5 -10 -11 -18 -14 -11 -3 -12 -2 0 6 10 7
4 16 -25 38 -22 16 -45 35 -52 42 -7 6 -18 12 -23 12 -5 0 -9 6 -9 13 0 8 -11
24 -25 37 -28 26 -32 40 -11 40 8 0 27 -20 43 -45z m-1257 8 c0 -10 -4 -25
-10 -33 -8 -12 -10 -12 -15 2 -5 13 -14 16 -35 12 -15 -4 -31 -1 -34 5 -5 7 5
11 28 11 20 0 36 5 36 10 0 6 7 10 15 10 8 0 15 -8 15 -17z m1605 -53 c3 -5 1
-10 -4 -10 -6 0 -11 5 -11 10 0 6 2 10 4 10 3 0 8 -4 11 -10z m-345 -55 c7
-14 26 -30 42 -37 15 -7 28 -16 28 -20 0 -16 -35 -7 -59 15 l-25 22 17 -27
c22 -35 15 -35 -27 -3 -18 14 -40 25 -49 25 -10 0 -17 4 -17 9 0 13 27 21 47
14 12 -5 15 -2 10 10 -10 27 18 20 33 -8z m627 -7 c-3 -8 -6 -5 -6 6 -1 11 2
17 5 13 3 -3 4 -12 1 -19z m-2283 -84 c23 -9 20 -24 -4 -24 -11 0 -20 7 -20
15 0 17 2 18 24 9z m1826 -20 c11 -12 10 -18 -3 -31 -19 -20 -24 -17 -31 20
-5 31 13 37 34 11z m100 -54 c0 -5 -4 -10 -9 -10 -6 0 -13 5 -16 10 -3 6 1 10
9 10 9 0 16 -4 16 -10z m-2024 -36 c-4 -9 -9 -15 -11 -12 -3 3 -3 13 1 22 4 9
9 15 11 12 3 -3 3 -13 -1 -22z m1762 8 c2 -7 0 -11 -5 -10 -4 2 -9 -1 -10 -7
-2 -5 9 -13 23 -17 33 -9 55 -28 48 -40 -4 -6 5 -8 24 -4 21 5 34 2 46 -9 23
-23 20 -32 -4 -10 -18 17 -21 17 -46 0 -49 -32 -95 1 -110 80 -6 32 -4 37 11
33 10 -1 20 -9 23 -16z m127 -13 c11 -17 2 -18 -19 -3 -17 12 -17 14 -4 14 9
0 20 -5 23 -11z m645 -27 c0 -14 -11 -21 -26 -15 -21 8 -17 23 6 23 11 0 20
-4 20 -8z m-2580 -10 c0 -4 -9 -13 -21 -20 -19 -12 -19 -11 -9 8 10 19 30 28
30 12z m-7 -230 c-3 -12 -9 -22 -14 -22 -12 0 -11 7 3 30 15 24 19 21 11 -8z
m-211 -74 c-7 -7 -12 -8 -12 -2 0 14 12 26 19 19 2 -3 -1 -11 -7 -17z m2221
-64 c12 3 35 -1 51 -9 16 -8 36 -15 45 -15 9 0 36 -14 61 -30 25 -16 60 -33
78 -36 17 -3 32 -12 32 -19 0 -8 18 -16 43 -20 23 -4 47 -11 52 -15 6 -5 28
-11 50 -13 22 -3 47 -8 55 -11 15 -6 54 -96 55 -127 0 -8 8 -23 18 -33 9 -10
17 -25 17 -35 0 -9 5 -22 11 -28 5 -5 17 -47 24 -92 8 -45 19 -90 24 -100 6
-10 15 -55 20 -100 6 -45 13 -86 16 -91 14 -22 55 -266 61 -360 10 -166 24
-265 43 -310 8 -20 9 -13 6 37 -3 45 -1 64 10 73 12 10 17 7 26 -14 9 -20 9
-30 -3 -48 -17 -26 -18 -172 -4 -418 7 -115 5 -168 -8 -255 -9 -60 -15 -126
-14 -145 2 -79 -26 -199 -51 -214 -10 -6 -45 -117 -56 -176 -6 -33 -13 -53
-38 -107 -6 -13 -17 -23 -24 -23 -8 0 -11 -4 -8 -10 3 -5 1 -20 -6 -32 -12
-22 -12 -22 -19 -2 -5 12 -1 44 7 75 8 30 16 63 17 73 2 27 -19 31 -30 5 -8
-16 -20 -21 -61 -24 l-52 -4 6 36 c6 35 6 36 -22 29 l-28 -7 8 63 c5 35 9 88
10 118 2 53 17 98 38 111 12 8 0 29 -17 29 -9 0 -12 9 -8 25 3 18 0 25 -12 25
-9 0 -16 5 -16 10 0 6 9 10 20 10 28 0 25 17 -5 24 -24 6 -36 26 -15 26 14 0
-27 40 -42 41 -10 0 -10 2 0 6 14 6 16 33 2 33 -5 0 -7 7 -3 17 5 13 2 15 -17
10 -13 -3 -28 0 -36 8 -16 16 -19 55 -4 55 10 0 14 -14 11 -37 -2 -15 1 -15
23 -7 14 5 14 8 0 29 -9 15 -13 33 -9 47 5 20 4 21 -7 7 -16 -19 -48 -32 -48
-19 0 5 5 12 10 15 15 9 12 25 -6 25 -8 0 -13 3 -10 8 2 4 -2 22 -9 40 -10 22
-21 32 -35 32 -12 0 -28 7 -36 15 -9 8 -25 15 -37 15 -18 0 -19 -2 -7 -10 11
-7 5 -8 -20 -5 -37 4 -50 -6 -50 -42 0 -13 -6 -23 -12 -24 -10 0 -10 -2 0 -6
14 -6 16 -59 2 -68 -14 -9 -12 -35 3 -35 8 0 13 -23 15 -75 3 -74 3 -75 -24
-85 -19 -8 -30 -8 -38 0 -7 7 -6 10 2 10 7 0 12 5 12 10 0 6 -11 10 -24 10
-14 0 -40 16 -65 40 -38 37 -51 60 -33 60 4 0 12 11 18 24 10 21 8 25 -13 35
-13 6 -31 11 -40 11 -9 0 -13 3 -10 7 9 8 -59 33 -90 33 -13 0 -23 -4 -23 -8
0 -5 -11 -14 -24 -22 -13 -7 -27 -21 -29 -32 -4 -15 -11 -17 -34 -11 -15 4
-40 7 -55 6 -19 -2 -31 4 -38 17 -9 16 -7 20 5 20 8 0 15 4 15 8 0 13 -50 33
-62 25 -7 -4 -9 -1 -6 9 4 10 -5 21 -24 33 -30 17 -32 17 -44 0 -7 -10 -11
-22 -8 -26 5 -9 -64 -24 -73 -16 -3 3 -11 0 -18 -7 -15 -14 -139 -31 -156 -20
-5 3 -7 15 -3 26 4 14 2 18 -5 14 -6 -4 -11 -1 -11 8 0 20 40 32 51 15 4 -7
11 -10 15 -6 4 4 2 13 -4 19 -15 15 -16 58 -1 58 6 0 8 8 5 18 -4 13 7 23 46
42 52 25 110 29 135 8 8 -6 15 -3 23 11 6 12 8 21 5 21 -3 0 -1 10 6 21 8 17
8 27 -2 47 -11 19 -11 26 -2 29 7 2 9 11 6 20 -4 9 3 22 16 32 19 14 23 28 24
79 1 41 6 62 14 62 7 0 17 17 23 38 12 45 20 57 41 64 15 6 27 24 63 95 6 13
25 29 41 37 27 14 30 14 34 -2 2 -9 7 -22 12 -28 5 -6 7 -19 3 -27 -9 -24 51
-139 89 -171 46 -39 199 -136 215 -136 7 0 27 -7 45 -17 18 -9 51 -16 75 -15
27 0 45 -5 48 -13 6 -16 42 -26 49 -14 3 4 12 6 20 2 19 -7 15 35 -4 47 -15 9
-7 14 34 24 l30 8 -25 13 c-14 8 -37 14 -52 15 -15 0 -30 5 -33 10 -3 6 -17
10 -30 10 -33 0 -40 17 -10 24 24 6 30 19 26 62 -2 24 22 48 41 42 7 -3 26 0
41 7 40 17 81 7 124 -30 47 -40 83 -53 83 -31 0 9 6 16 13 16 7 1 5 6 -5 14
-12 8 -17 25 -16 50 1 21 -4 41 -10 45 -6 3 -10 13 -10 21 3 41 -6 50 -98 96
-74 38 -97 45 -103 35 -5 -8 -11 -9 -15 -3 -3 6 0 13 6 15 22 9 -14 27 -41 20
-15 -4 -22 -2 -18 4 10 15 132 36 175 30 60 -8 112 -36 161 -85 18 -17 37 -32
42 -32 12 0 9 79 -3 86 -4 3 -8 14 -8 24 0 13 -5 17 -14 14 -9 -3 -20 3 -28
15 -7 12 -18 21 -25 21 -7 0 -16 6 -20 13 -14 23 -77 65 -108 73 -16 4 -36 11
-43 17 -7 6 -36 11 -65 12 -66 3 -59 1 -93 30 -29 25 -45 30 -56 19 -4 -3 -40
-6 -82 -6 -58 -1 -80 3 -94 15 -25 23 -36 21 -68 -8 -28 -26 -58 -32 -69 -15
-4 6 -13 7 -23 2 -14 -7 -75 -8 -92 -2 -3 1 -17 1 -32 0 -16 -1 -28 3 -28 9 0
8 -6 7 -19 -1 -16 -10 -25 -9 -45 1 -14 8 -23 17 -21 21 8 12 -49 19 -62 8 -9
-7 -13 -7 -13 1 0 6 5 11 10 11 6 0 10 7 10 16 0 14 -2 15 -17 3 -14 -12 -15
-12 -9 0 5 8 3 17 -5 22 -17 11 -29 11 -28 2 4 -24 -5 -31 -38 -31 -48 0 -82
16 -62 29 11 7 10 9 -3 9 -10 0 -18 -4 -18 -10 0 -5 -7 -10 -15 -10 -9 0 -12
6 -8 17 5 13 2 15 -18 10 -13 -4 -36 -1 -51 5 -22 10 -26 17 -21 39 6 32 -7
42 -39 30 l-23 -10 23 0 c27 -1 28 -11 1 -42 l-21 -24 7 28 c6 21 4 27 -9 27
-11 0 -16 9 -16 26 0 22 4 25 20 21 16 -4 20 -1 16 11 -4 13 1 17 22 18 15 0
40 12 55 26 24 22 27 33 27 87 0 52 4 66 25 89 14 15 23 32 21 39 -3 8 1 10
11 6 10 -4 14 -2 12 6 -3 7 -8 12 -12 12 -3 0 -19 11 -33 24 -17 16 -34 23
-46 19 -12 -4 -18 0 -18 11 0 14 -7 16 -37 11 -21 -3 -31 -3 -23 1 8 3 27 14
42 24 32 23 42 24 34 4 -3 -9 0 -15 9 -15 9 0 15 10 15 25 0 15 -6 25 -14 25
-11 0 -10 8 5 40 20 41 44 57 96 62 24 3 28 0 25 -18 -2 -12 4 -24 13 -27 9
-4 15 -1 15 8 0 8 7 15 15 15 8 0 15 -4 15 -10 0 -5 5 -10 10 -10 14 0 12 38
-2 42 -8 3 -2 19 18 46 22 30 34 38 45 31 20 -13 39 -11 39 4 0 8 24 12 82 13
92 1 174 8 201 18 38 14 46 15 49 6 2 -5 14 -7 27 -3 23 6 23 7 6 20 -18 12
-18 13 1 13 11 0 26 -6 33 -12 12 -11 13 -10 7 6 -5 16 -4 17 9 6 8 -7 25 -10
38 -6z m-583 -109 c0 -8 -4 -15 -9 -15 -5 0 -14 7 -21 15 -10 13 -9 15 9 15
12 0 21 -6 21 -15z m-60 -15 c0 -5 -9 -10 -20 -10 -11 0 -20 5 -20 10 0 6 9
10 20 10 11 0 20 -4 20 -10z m4747 -35 c282 -53 507 -260 570 -523 21 -90 21
-257 -1 -347 -60 -248 -270 -454 -531 -521 -104 -27 -323 -25 -428 4 -132 36
-230 94 -332 197 -133 132 -189 256 -202 447 -21 312 151 586 444 703 132 53
325 69 480 40z m-1421 -10 c108 -19 196 -60 266 -124 95 -87 138 -197 138
-356 0 -255 -124 -423 -363 -492 -35 -10 -118 -17 -249 -20 l-198 -5 0 -194 0
-194 -180 0 -180 0 0 700 0 700 339 0 c260 0 359 -4 427 -15z m3054 -14 c188
-56 295 -163 335 -333 32 -135 7 -310 -59 -418 -30 -49 -87 -105 -153 -150
-22 -15 -21 -16 93 -195 63 -99 128 -201 144 -227 l30 -48 -204 0 -204 0 -104
195 -103 195 -137 0 -138 0 0 -195 0 -195 -180 0 -180 0 0 701 0 701 393 -4
c371 -4 396 -6 467 -27z m1660 -116 l0 -145 -210 0 -210 0 0 -555 0 -555 -182
0 -183 0 3 555 2 555 -210 0 -210 0 0 145 0 145 600 0 600 0 0 -145z m-6630
-108 c0 -18 -2 -19 -10 -7 -13 20 -13 43 0 35 6 -3 10 -16 10 -28z m14 -200
c2 -71 -7 -94 -20 -55 -9 28 -12 145 -5 173 8 32 23 -39 25 -118z m-4 -118 c0
-11 -4 -17 -10 -14 -5 3 -10 13 -10 21 0 8 5 14 10 14 6 0 10 -9 10 -21z m-9
-119 l-10 -25 0 25 c-1 14 3 36 7 50 l7 25 3 -25 c2 -14 -2 -37 -7 -50z m-1
-110 l-11 -25 6 25 c2 14 5 36 6 50 l2 25 4 -25 c2 -14 -1 -37 -7 -50z m-326
-25 c11 -8 16 -18 11 -22 -4 -5 -10 -2 -12 5 -3 6 -11 12 -18 12 -8 0 -17 5
-20 10 -9 15 17 11 39 -5z m-724 -131 c0 -9 -7 -14 -17 -12 -25 5 -28 28 -4
28 12 0 21 -6 21 -16z m-561 -163 c-15 -5 -22 6 -14 19 6 9 10 9 16 -1 5 -8 4
-15 -2 -18z m-1449 -6 c-17 -10 -20 -14 -9 -15 15 0 57 -38 52 -46 -9 -13 0
-33 15 -37 13 -4 12 -5 -5 -6 -12 0 -34 9 -50 22 -15 12 -37 27 -47 33 -28 15
-31 34 -7 34 12 0 18 5 16 13 -4 8 6 13 27 14 l33 2 -25 -14z m2373 1 c3 -8 1
-17 -6 -19 -17 -6 -49 12 -42 24 9 14 42 11 48 -5z m157 -1 c0 -16 -17 -19
-44 -9 -26 10 -18 24 14 24 20 0 30 -5 30 -15z m-2452 -143 c-15 -7 -15 -8 1
-28 9 -11 23 -18 30 -16 9 3 11 0 7 -7 -4 -7 -16 -9 -26 -6 -23 7 -37 -13 -16
-21 31 -12 16 -24 -29 -24 -25 0 -45 4 -45 9 0 5 8 26 17 47 9 22 16 42 15 47
-1 4 13 7 31 6 21 0 26 -3 15 -7z m2472 -152 c0 -5 -4 -10 -10 -10 -5 0 -10 5
-10 10 0 6 5 10 10 10 6 0 10 -4 10 -10z m-2090 -10 c11 -8 7 -9 -14 -4 -26 6
-29 5 -23 -15 3 -11 1 -21 -4 -21 -5 0 -9 -5 -9 -10 0 -6 10 -8 24 -4 13 3 34
1 45 -6 27 -14 28 -40 1 -33 -24 6 -28 -22 -4 -31 11 -4 13 -10 6 -23 -5 -9
-7 -28 -3 -42 4 -14 6 -38 5 -53 -2 -16 1 -28 7 -28 5 0 9 -8 9 -18 0 -15 -6
-18 -28 -14 -35 5 -58 37 -42 57 8 9 8 15 0 20 -6 4 -8 20 -4 41 5 28 2 38
-16 54 -12 10 -19 24 -15 30 4 7 -2 18 -14 26 -12 9 -21 26 -21 40 0 33 20 30
21 -3 0 -28 0 -28 10 -5 5 13 7 28 4 32 -11 18 42 25 65 10z m577 -40 c4 -17
8 -18 27 -8 11 7 25 11 29 10 4 -1 17 3 29 9 16 9 19 8 13 -2 -6 -9 0 -11 23
-6 37 8 53 -9 20 -22 -23 -9 -23 -9 22 -24 9 -3 6 -6 -8 -6 -16 -1 -23 -7 -21
-18 5 -58 0 -73 -30 -73 -20 0 -30 6 -34 20 -7 29 -39 26 -35 -2 2 -19 -2 -24
-29 -26 -18 -2 -33 -7 -33 -13 0 -5 -8 -9 -17 -9 -19 -1 -75 -29 -59 -30 6 0
1 -7 -10 -15 -18 -14 -18 -14 8 -15 14 0 34 -3 43 -6 13 -5 11 -9 -11 -20 -24
-13 -29 -12 -45 2 -21 19 -49 12 -49 -11 0 -18 -17 -20 -22 -3 -3 7 -12 9 -22
5 -25 -10 -5 -33 34 -42 30 -7 57 -31 46 -42 -3 -4 -12 2 -20 12 -15 21 -46
14 -46 -10 0 -9 -5 -13 -11 -10 -6 4 -8 13 -5 21 3 9 -1 14 -13 14 -11 0 -21
-6 -24 -12 -2 -8 -8 -9 -13 -4 -5 5 -4 11 4 13 6 3 12 13 12 23 0 10 4 21 10
25 5 3 7 11 5 18 -3 7 0 19 5 27 8 12 13 13 29 3 26 -16 36 -3 11 14 -20 14
-19 33 1 33 6 0 7 -4 4 -10 -8 -12 5 -13 24 -1 12 8 12 12 2 24 -8 10 -9 17
-1 22 5 3 10 17 10 30 0 17 6 25 23 27 16 2 22 10 22 28 0 20 5 25 28 27 35 2
58 20 50 39 -3 8 0 14 7 14 6 0 14 -9 17 -20z m-1000 -36 c-3 -3 -12 -4 -19
-1 -8 3 -5 6 6 6 11 1 17 -2 13 -5z m1233 -44 c0 -5 -7 -10 -15 -10 -8 0 -15
5 -15 10 0 6 7 10 15 10 8 0 15 -4 15 -10z m4485 -14 c33 -9 103 -37 155 -63
80 -39 109 -60 180 -132 142 -144 200 -285 200 -491 0 -209 -57 -348 -204
-496 -103 -103 -200 -160 -333 -196 -105 -28 -326 -31 -423 -4 -231 63 -396
198 -491 400 -39 84 -59 181 -59 296 0 124 20 213 71 317 33 69 57 102 127
172 118 117 240 179 422 215 51 10 296 -3 355 -18z m3373 -5 c233 -67 411
-233 488 -456 26 -72 28 -93 29 -220 0 -119 -3 -151 -23 -215 -36 -115 -86
-195 -176 -285 -122 -121 -238 -181 -400 -210 -275 -48 -533 28 -711 210 -119
122 -179 249 -194 416 -16 168 22 341 99 456 105 155 282 278 452 312 29 6 62
13 73 15 11 3 81 3 155 1 98 -2 155 -9 208 -24z m-4423 -126 l0 -140 -337 -3
-338 -2 0 -155 0 -155 310 0 310 0 0 -145 0 -145 -310 0 -310 0 0 -255 0 -255
-185 0 -185 0 0 700 0 700 523 -2 522 -3 0 -140z m2133 -407 l2 -548 295 0
295 0 0 -150 0 -150 -480 0 -480 0 0 693 c0 382 3 697 7 701 4 3 86 5 182 4
l176 -3 3 -547z m1112 -148 l0 -700 -180 0 -180 0 0 700 0 700 180 0 180 0 0
-700z m-8023 648 c-3 -8 -6 -5 -6 6 -1 11 2 17 5 13 3 -3 4 -12 1 -19z m883
-8 c0 -13 -28 -25 -38 -16 -3 4 0 11 8 16 20 13 30 12 30 0z m280 -36 c0 -2
-9 -4 -20 -4 -11 0 -20 4 -20 9 0 5 9 7 20 4 11 -3 20 -7 20 -9z m110 -4 c0
-5 -4 -10 -10 -10 -5 0 -10 5 -10 10 0 6 5 10 10 10 6 0 10 -4 10 -10z m-1276
-102 c4 -23 3 -38 -3 -38 -12 0 -25 56 -16 70 9 15 11 12 19 -32z m2601 32 c3
-5 1 -10 -4 -10 -6 0 -11 5 -11 10 0 6 2 10 4 10 3 0 8 -4 11 -10z m-1579 -57
c-10 -10 -19 5 -10 18 6 11 8 11 12 0 2 -7 1 -15 -2 -18z m278 21 c24 -9 19
-41 -9 -60 -21 -14 -28 -14 -41 -3 -14 12 -13 14 8 22 14 6 18 11 11 14 -7 3
-13 11 -13 19 0 15 18 18 44 8z m-474 -39 c0 -12 -19 -12 -23 0 -4 9 -1 12 9
8 7 -3 14 -7 14 -8z m290 -10 c-7 -8 -17 -12 -22 -9 -6 4 -5 10 3 15 22 14 33
10 19 -6z m-1100 -15 c0 -11 -4 -20 -10 -20 -5 0 -10 9 -10 20 0 11 5 20 10
20 6 0 10 -9 10 -20z m827 -32 c-3 -8 -6 -5 -6 6 -1 11 2 17 5 13 3 -3 4 -12
1 -19z m-782 -22 c11 -27 19 -33 35 -29 13 4 20 0 20 -9 0 -8 12 -21 26 -28
23 -13 24 -15 7 -22 -16 -6 -16 -7 4 -14 13 -3 20 -10 17 -15 -3 -5 1 -6 9 -3
17 6 82 -46 70 -56 -4 -4 -28 -5 -53 -1 -39 5 -47 11 -61 41 -10 19 -15 38
-12 43 2 4 -3 7 -12 7 -11 0 -15 5 -11 15 5 13 -5 19 -26 16 -4 0 -21 13 -38
30 -24 25 -28 34 -19 45 18 22 29 17 44 -20z m840 24 c3 -5 1 -10 -4 -10 -6 0
-11 5 -11 10 0 6 2 10 4 10 3 0 8 -4 11 -10z m-40 -61 c11 -17 -1 -21 -15 -4
-8 9 -8 15 -2 15 6 0 14 -5 17 -11z m-755 -163 c0 -3 -7 -6 -15 -6 -9 0 -15 9
-15 21 0 18 2 19 15 5 8 -8 15 -17 15 -20z m58 -31 c2 -16 0 -26 -5 -22 -4 5
-8 13 -8 17 0 5 -9 16 -20 25 -20 15 -19 16 5 13 20 -2 26 -10 28 -33z m1768
6 c5 -6 27 -6 52 -1 46 8 82 3 82 -11 0 -5 -6 -10 -12 -10 -7 -1 1 -5 17 -9
28 -7 27 -8 -14 -9 -30 -1 -48 4 -56 16 -7 10 -17 13 -25 8 -17 -11 -67 -13
-105 -4 -30 7 -30 7 -3 8 15 1 30 6 33 11 8 12 18 13 31 1z m-1736 -41 c0 -5
-2 -10 -4 -10 -3 0 -8 5 -11 10 -3 6 -1 10 4 10 6 0 11 -4 11 -10z m-30 -14
c0 -3 -4 -8 -10 -11 -5 -3 -10 -1 -10 4 0 6 5 11 10 11 6 0 10 -2 10 -4z m163
-68 c4 -28 2 -38 -7 -38 -19 0 -27 39 -13 61 14 22 13 23 20 -23z m1448 28
c16 -8 32 -10 40 -5 20 12 287 11 295 -2 4 -7 11 -6 20 2 17 14 77 4 94 -16 7
-8 23 -15 35 -15 28 0 75 -52 70 -77 -2 -10 -4 -21 -4 -25 -1 -4 -12 -15 -26
-24 -23 -15 -27 -15 -50 0 -34 22 -65 21 -65 -3 0 -11 -6 -21 -12 -24 -9 -3
-6 -7 6 -13 13 -5 21 -3 24 4 6 18 42 15 118 -10 38 -12 85 -21 105 -19 30 2
40 -3 66 -33 17 -20 35 -36 42 -36 6 0 11 -13 11 -28 0 -15 4 -32 9 -38 14
-15 0 -74 -20 -85 -11 -5 -19 -18 -19 -28 0 -10 -9 -30 -20 -44 -13 -16 -16
-28 -10 -32 15 -9 12 -25 -4 -25 -17 0 -26 -22 -26 -61 0 -21 -6 -32 -22 -38
-20 -8 -21 -10 -5 -16 26 -11 20 -27 -10 -23 -35 4 -40 -15 -8 -30 21 -10 26
-9 37 11 7 12 11 28 10 35 -2 6 4 12 13 12 8 0 15 5 15 10 0 6 5 10 10 10 19
0 -2 -54 -29 -77 -14 -13 -34 -21 -45 -19 -12 3 -20 -2 -23 -14 -4 -15 -11
-18 -37 -13 -17 3 -33 9 -36 12 -12 14 -40 10 -49 -8 -7 -12 -24 -21 -44 -23
-25 -2 -35 2 -48 22 -16 26 -54 37 -65 19 -6 -11 -77 57 -87 85 -4 9 -11 14
-17 11 -5 -3 -10 1 -10 9 0 9 4 16 9 16 5 0 32 23 59 50 27 28 58 50 69 50 20
0 57 36 44 44 -4 3 -6 18 -3 35 4 28 1 30 -52 47 -49 16 -55 20 -52 41 3 13 0
23 -5 23 -5 0 -9 10 -9 23 0 17 -10 25 -47 37 -41 14 -47 19 -50 48 -4 30 -2
32 25 32 35 0 55 20 46 45 -5 12 -15 16 -37 12 -47 -7 -175 9 -193 24 -9 7
-34 12 -59 10 -36 -2 -47 2 -69 25 -22 24 -26 26 -32 11 -8 -22 -46 -22 -74 1
-47 38 27 103 80 70 16 -10 22 -10 32 4 23 29 52 34 89 14z m-1571 -26 c0 -5
-7 -10 -16 -10 -8 0 -12 5 -9 10 3 6 10 10 16 10 5 0 9 -4 9 -10z m2566 -27
c-3 -8 -6 -17 -6 -19 0 -2 -4 -4 -10 -4 -5 0 -10 11 -10 25 0 18 4 23 16 18 8
-3 13 -12 10 -20z m-2491 7 c3 -5 2 -10 -4 -10 -5 0 -13 5 -16 10 -3 6 -2 10
4 10 5 0 13 -4 16 -10z m1244 -29 c8 -14 7 -20 -3 -24 -18 -7 -26 1 -26 25 0
24 17 23 29 -1z m-489 5 c0 -2 -7 -6 -15 -10 -8 -3 -15 -1 -15 4 0 6 7 10 15
10 8 0 15 -2 15 -4z m2085 -98 c-12 -53 -24 -71 -40 -58 -11 9 -11 18 -4 38
22 57 55 72 44 20z m-1172 -67 c9 -37 -16 -57 -67 -53 -38 3 -46 8 -46 24 0
10 5 16 10 13 6 -3 10 -2 10 3 0 10 71 41 81 36 4 -2 9 -12 12 -23z m-373 -57
c0 -8 -4 -12 -10 -9 -5 3 -10 10 -10 16 0 5 5 9 10 9 6 0 10 -7 10 -16z m1486
-38 c-2 -12 -8 -31 -14 -42 -10 -16 -11 -12 -10 28 1 32 5 45 14 41 6 -2 11
-14 10 -27z m-1126 14 c0 -12 -8 -12 -35 0 -18 8 -17 9 8 9 15 1 27 -3 27 -9z
m120 -70 c0 -5 -4 -10 -10 -10 -5 0 -10 5 -10 10 0 6 5 10 10 10 6 0 10 -4 10
-10z m846 -22 c-9 -13 -21 -33 -26 -45 -14 -34 -23 -28 -15 10 7 31 29 57 48
57 5 0 2 -10 -7 -22z m-281 -178 c3 -5 2 -10 -4 -10 -5 0 -13 5 -16 10 -3 6
-2 10 4 10 5 0 13 -4 16 -10z m-75 -34 c0 -25 -13 -25 -27 0 -17 34 -17 37 7
24 11 -6 20 -17 20 -24z m357 -36 c-8 -12 -13 -29 -10 -39 5 -21 -18 -71 -41
-90 -9 -8 -16 -11 -16 -7 0 20 46 144 59 159 20 24 27 4 8 -23z m-2287 -141
c7 -11 9 -32 6 -45 -4 -14 -2 -24 4 -24 13 0 60 -102 60 -130 0 -11 5 -20 10
-20 6 0 10 -4 10 -10 0 -5 -15 -10 -33 -10 -26 0 -35 6 -45 30 -8 17 -20 30
-28 30 -11 0 -14 13 -13 53 2 67 0 75 -9 59 -5 -7 -8 3 -8 25 1 61 25 82 46
42z m2180 -140 c0 -12 14 -41 30 -66 24 -35 28 -48 19 -59 -8 -10 -8 -30 1
-80 7 -36 10 -95 7 -132 -10 -126 -29 -247 -43 -281 -8 -18 -14 -43 -14 -54 0
-11 -14 -68 -31 -126 -18 -58 -33 -122 -35 -141 -3 -38 -25 -128 -43 -173 -6
-16 -13 -45 -15 -65 -8 -71 -23 -152 -28 -158 -3 -3 -28 9 -56 25 -27 17 -52
31 -56 31 -3 0 -6 -13 -6 -28 0 -15 -4 -32 -10 -38 -5 -5 -12 -32 -15 -59 l-5
-50 19 50 c10 28 17 53 15 56 -2 4 3 9 11 13 11 4 15 -2 15 -23 0 -15 -3 -31
-7 -35 -11 -11 -13 -115 -2 -122 5 -3 9 1 9 9 0 8 12 41 27 73 l28 59 3 -40
c3 -43 -21 -188 -63 -375 -14 -63 -32 -151 -41 -195 -8 -44 -30 -136 -48 -205
-19 -69 -41 -165 -50 -215 -23 -140 -54 -279 -75 -348 -11 -34 -32 -118 -46
-187 -14 -69 -35 -159 -46 -200 -12 -41 -24 -97 -29 -125 -12 -75 -59 -303
-75 -360 -8 -27 -24 -104 -35 -170 -12 -66 -32 -174 -45 -240 -13 -66 -31
-164 -40 -218 -9 -54 -23 -113 -30 -132 -8 -18 -12 -35 -9 -38 7 -7 -17 -136
-32 -172 l-13 -30 -1 34 c0 19 -3 31 -7 27 -4 -4 -6 -49 -5 -99 2 -61 -2 -106
-11 -132 l-14 -40 -12 90 c-7 50 -16 99 -21 110 -4 11 -13 40 -18 65 -8 36
-10 19 -7 -85 l4 -130 -20 60 c-27 84 -81 406 -80 478 0 15 -3 27 -8 27 -4 0
-11 48 -15 108 -6 109 -13 152 -25 152 -8 0 -81 -106 -81 -118 0 -5 -7 -16
-16 -23 -9 -8 -26 -28 -38 -45 -110 -164 -136 -202 -150 -213 -9 -7 -16 -19
-16 -25 0 -6 -12 -24 -27 -41 -16 -16 -39 -46 -53 -66 -72 -107 -103 -150
-113 -156 -7 -4 -3 6 7 22 11 17 25 39 31 51 18 34 118 173 160 223 22 25 45
55 52 66 7 11 33 55 59 97 26 43 53 83 60 89 8 6 14 16 14 22 0 6 7 19 17 29
9 10 21 27 27 37 6 11 24 41 39 66 l29 47 -8 241 c-5 133 -10 232 -12 220 -2
-12 -15 -34 -30 -50 -15 -16 -35 -45 -45 -64 -10 -19 -30 -48 -45 -64 -15 -17
-46 -60 -70 -96 -24 -37 -52 -75 -62 -84 -11 -10 -20 -23 -20 -30 0 -6 -13
-24 -30 -40 -16 -16 -30 -34 -30 -39 -1 -13 -46 -66 -56 -66 -3 0 5 15 20 34
14 19 26 38 26 41 0 10 102 149 112 153 4 2 8 8 8 13 0 14 48 86 96 144 41 50
65 88 104 158 19 35 20 45 11 140 -6 56 -13 141 -17 190 -7 102 -16 108 -65
41 -19 -25 -46 -60 -60 -77 -14 -18 -37 -49 -50 -69 -31 -47 -211 -301 -218
-308 -18 -16 -101 -130 -101 -138 0 -6 -3 -12 -7 -14 -5 -1 -17 -16 -29 -33
-120 -173 -174 -255 -174 -263 0 -5 -9 -17 -20 -27 -11 -10 -20 -13 -20 -7 0
10 64 110 126 197 7 11 39 55 69 98 30 42 55 82 55 87 0 6 5 10 10 10 6 0 10
5 10 11 0 7 15 30 34 53 18 23 40 55 49 72 9 17 23 37 33 45 10 8 32 37 50 64
19 28 50 73 69 100 20 28 56 80 81 116 24 36 53 75 64 86 10 12 33 43 50 71
l30 49 0 187 c0 148 -3 186 -13 186 -15 0 -184 -180 -255 -270 -71 -91 -152
-200 -152 -205 0 -2 -15 -25 -32 -50 -68 -96 -120 -172 -156 -227 -58 -90 -58
-68 -1 25 29 45 70 111 92 147 23 36 53 80 69 98 15 18 28 37 28 42 0 5 7 15
15 24 9 8 38 48 66 88 99 143 88 130 287 356 12 14 25 36 28 48 8 32 -23 170
-52 228 -13 28 -24 56 -24 63 0 23 -18 14 -41 -19 -12 -18 -79 -91 -149 -163
-117 -121 -208 -239 -225 -293 -10 -35 -55 -109 -55 -92 0 9 6 24 14 35 7 11
24 47 38 81 39 98 115 200 255 344 l132 136 -6 75 c-4 41 -8 68 -11 61 -7 -23
-22 -1 -22 33 0 44 9 65 27 65 11 0 14 -8 11 -32 -8 -54 18 -6 38 70 22 86 59
159 82 166 11 4 34 25 52 49 19 23 39 45 46 49 7 5 23 27 37 50 14 24 39 55
56 71 17 15 31 32 31 37 0 18 42 53 69 58 14 2 42 5 61 6 19 1 45 7 58 14 19
11 26 11 39 1 12 -11 17 -10 24 3 10 19 66 53 189 115 84 42 85 43 91 20 5
-21 7 -20 42 17 20 22 37 42 37 45 0 4 -42 56 -93 116 -107 127 -174 178 -267
201 l-65 16 -117 -115 c-112 -110 -117 -116 -112 -149 6 -32 2 -37 -48 -75
-29 -22 -75 -47 -102 -56 l-48 -15 7 71 c3 40 11 76 16 82 5 5 9 16 9 25 0 23
28 80 54 109 12 12 51 38 87 57 114 57 150 87 402 336 135 134 315 312 401
396 86 85 156 156 156 158 0 3 7 16 16 29 20 31 44 33 44 4z m-2195 -128 c0
-11 55 -74 56 -64 1 4 1 16 0 26 -1 9 1 17 6 17 12 0 32 -70 22 -76 -5 -3 -9
-16 -9 -29 0 -15 -10 -31 -24 -41 -22 -14 -27 -52 -5 -38 16 10 31 -6 19 -21
-6 -7 -8 -25 -4 -39 5 -21 2 -27 -21 -36 -15 -6 -23 -15 -19 -21 4 -7 10 -7
16 -1 6 6 17 8 24 5 16 -6 19 -33 4 -33 -5 0 -10 4 -10 9 0 6 -9 9 -20 8 -11
-1 -20 -5 -20 -10 0 -18 -31 17 -46 51 -12 30 -12 38 0 61 25 45 36 91 29 121
-6 31 4 39 24 19 7 -7 9 -25 6 -40 -3 -17 -1 -29 5 -29 16 0 21 50 6 65 -8 7
-14 17 -14 21 0 4 -6 12 -14 18 -8 6 -17 27 -21 46 -4 20 -4 31 1 27 5 -5 9
-12 9 -16z m75 -1 c0 -13 -11 -13 -30 0 -12 8 -11 10 8 10 12 0 22 -4 22 -10z
m2270 -135 c53 -44 100 -94 100 -106 0 -5 6 -9 14 -9 7 0 22 -12 31 -27 41
-63 154 -153 194 -153 10 0 24 -7 31 -15 7 -8 20 -15 28 -15 9 0 32 -10 51
-23 20 -12 45 -27 55 -33 31 -17 32 -36 2 -28 -35 8 -34 -11 2 -33 34 -21 81
-65 82 -76 0 -11 -37 10 -62 35 -21 21 -21 21 -35 2 -13 -18 -15 -18 -27 -2
-7 10 -16 15 -19 12 -6 -7 -26 8 -59 44 -15 15 -33 22 -61 22 -30 0 -40 4 -44
20 -4 16 -14 20 -45 20 -37 0 -40 2 -34 22 4 17 -2 30 -23 49 -16 14 -29 35
-28 45 1 12 -5 20 -18 22 -22 3 -105 82 -87 82 6 0 9 7 6 15 -4 8 -15 15 -25
15 -21 0 -43 37 -54 90 -4 19 -15 40 -24 47 -9 7 -11 13 -4 13 6 0 30 -16 53
-35z m-2220 9 c0 -8 -5 -12 -10 -9 -6 4 -8 11 -5 16 9 14 15 11 15 -7z m-93
-374 c26 -29 68 -68 94 -89 26 -20 94 -76 150 -126 209 -184 195 -177 350
-194 47 -5 96 -15 110 -21 42 -19 192 -201 178 -214 -2 -2 -36 -2 -76 1 -63 5
-72 8 -76 27 -4 21 -5 21 -12 -2 -5 -14 -14 -22 -24 -20 -10 2 -28 -4 -42 -13
-13 -9 -36 -19 -51 -22 -14 -4 -33 -9 -41 -13 -8 -3 -23 3 -33 14 -11 11 -35
24 -54 31 -20 6 -60 36 -90 66 -56 57 -53 71 7 34 41 -26 55 -18 25 14 -12 13
-22 28 -22 33 0 6 -15 8 -33 6 -22 -2 -38 2 -46 12 -15 17 -8 22 38 28 14 2
26 9 29 16 7 22 -41 13 -110 -21 -70 -34 -143 -108 -155 -157 -3 -14 -9 -29
-13 -35 -14 -20 -59 -142 -70 -190 -6 -28 -38 -105 -71 -172 -56 -113 -69
-163 -44 -164 6 0 14 13 19 30 15 52 50 34 39 -20 -2 -13 0 -35 5 -49 9 -23
11 -21 26 32 19 63 36 84 36 44 0 -42 18 -30 25 17 9 51 15 63 25 46 11 -16
39 49 42 97 3 45 28 70 28 28 0 -47 12 -104 22 -104 4 0 11 13 14 29 4 17 12
32 19 35 25 9 37 -22 34 -91 -4 -106 -1 -145 12 -137 8 4 10 26 6 62 -6 56 6
148 24 191 9 22 11 23 26 8 12 -12 20 -13 34 -4 20 13 49 -5 49 -30 0 -13 3
-13 16 -2 14 11 18 10 30 -6 39 -53 46 -166 31 -509 -6 -131 -12 -184 -22
-200 -8 -11 -15 -35 -15 -54 0 -18 -15 -65 -34 -105 -19 -40 -37 -88 -41 -107
-4 -19 -13 -46 -20 -60 -23 -46 -107 -373 -129 -500 -7 -41 -28 -164 -47 -273
-31 -183 -35 -197 -52 -191 -19 6 -20 2 -14 -130 4 -75 2 -136 -2 -136 -14 0
-49 110 -56 174 -4 33 -13 69 -20 80 -16 26 -55 266 -55 341 0 29 -4 56 -8 59
-5 3 -12 47 -16 98 -4 51 -11 145 -16 208 -5 63 -14 203 -19 310 -6 107 -14
227 -20 265 -5 39 -11 106 -12 150 -1 44 -8 105 -16 135 -12 44 -16 151 -18
548 -2 312 -8 527 -16 587 -10 74 -10 115 0 194 7 56 10 105 7 109 -4 7 16 77
44 147 l11 30 30 -62 c16 -33 50 -84 76 -113z m3232 -57 c32 -19 37 -28 21
-38 -9 -5 -90 40 -90 50 0 11 40 4 69 -12z m84 -58 c-4 -15 -36 -12 -41 3 -3
9 3 13 19 10 13 -1 23 -7 22 -13z m47 -20 c10 -13 9 -15 -9 -15 -12 0 -21 6
-21 15 0 8 4 15 9 15 5 0 14 -7 21 -15z m86 -24 c5 -5 65 -29 134 -54 177 -63
217 -77 285 -94 33 -9 71 -21 85 -28 50 -25 216 -59 450 -94 75 -11 225 -38
315 -57 55 -11 212 -95 247 -132 43 -45 67 -106 61 -150 -3 -18 -1 -38 5 -45
5 -6 13 -34 17 -62 4 -27 11 -55 17 -62 12 -15 0 -95 -13 -87 -11 6 -79 -14
-79 -24 0 -4 -12 -20 -25 -35 -23 -26 -27 -27 -41 -12 -16 15 -31 15 -158 -1
-36 -4 -38 -3 -33 17 3 12 2 30 -3 39 -8 14 -5 16 15 12 19 -3 25 0 26 14 0
11 3 14 6 7 6 -17 23 -16 23 1 0 13 -14 23 -35 24 -18 1 -22 37 -8 65 8 15 17
51 20 80 3 29 9 57 13 62 5 6 10 35 13 65 5 54 5 55 -13 33 -10 -12 -32 -69
-51 -125 -18 -57 -45 -132 -60 -168 -15 -36 -30 -84 -34 -108 -4 -24 -13 -56
-21 -70 -8 -15 -14 -33 -14 -39 0 -7 -7 -13 -15 -13 -13 0 -14 4 -5 21 9 15 8
24 -1 35 -8 10 -9 18 0 27 6 8 8 17 4 20 -3 4 1 7 10 7 26 0 20 17 -9 24 -20
5 -25 12 -22 34 2 15 9 26 16 25 6 -2 12 6 12 16 0 14 -5 18 -20 14 -11 -3
-20 0 -20 6 0 6 0 14 0 19 0 4 6 7 13 7 6 0 19 7 27 16 8 9 22 18 30 22 13 4
12 6 -1 6 -9 1 -31 15 -48 33 -21 22 -31 27 -31 16 0 -10 -13 -17 -37 -21 -20
-4 -39 -4 -41 -2 -9 9 22 36 35 31 7 -3 13 1 13 10 0 11 -5 14 -16 10 -10 -4
-37 7 -67 25 -31 19 -53 27 -55 20 -6 -19 -22 -12 -22 9 0 14 -7 20 -23 20
-13 0 -27 4 -32 8 -6 5 -29 14 -52 22 -27 8 -43 20 -47 34 -4 16 -8 18 -18 8
-18 -18 -30 -15 -24 6 5 16 -4 22 -56 37 -35 10 -69 23 -76 28 -7 5 -14 8 -15
6 -1 -2 -9 -13 -17 -23 -14 -18 -13 -19 17 -13 60 12 86 -13 33 -32 -26 -8
-34 -7 -49 8 -26 26 -33 51 -16 57 8 4 15 15 15 25 0 20 -15 26 -25 9 -11 -18
-35 -11 -35 10 0 15 -7 20 -29 20 -29 0 -55 19 -29 21 10 0 10 2 1 6 -7 2 -13
13 -13 24 0 14 -6 18 -27 15 -16 -2 -22 -1 -15 1 20 7 14 21 -18 37 -17 8 -46
24 -65 36 -19 12 -35 19 -35 15 0 -3 -7 1 -16 9 -8 9 -21 16 -28 16 -7 0 -23
9 -35 19 -12 10 -42 25 -66 32 -35 10 -44 17 -40 30 4 12 -5 24 -29 38 -18 12
-36 30 -39 41 -3 14 -14 20 -31 20 -25 0 -33 10 -19 23 9 10 47 9 59 -2z
m-521 -31 c3 -5 1 -10 -4 -10 -6 0 -11 5 -11 10 0 6 2 10 4 10 3 0 8 -4 11
-10z m-3305 -243 c0 -8 -9 -22 -20 -32 -19 -17 -19 -17 -7 14 12 32 27 42 27
18z m1679 -61 c-2 -2 -22 -6 -44 -10 -29 -5 -36 -4 -25 3 13 10 79 16 69 7z
m-2099 -104 c-8 -4 -107 -69 -220 -144 -192 -128 -320 -200 -320 -179 0 8 102
81 113 81 8 0 109 63 242 152 123 81 149 95 185 96 13 1 13 0 0 -6z m1902 -74
c-6 -6 -15 -8 -19 -4 -4 4 -1 11 7 16 19 12 27 3 12 -12z m-607 1 c12 -19 -5
-23 -22 -6 -16 16 -16 17 -1 17 9 0 20 -5 23 -11z m195 1 c0 -5 5 -10 11 -10
23 0 128 -71 175 -119 65 -64 71 -73 105 -139 44 -88 34 -96 -15 -12 -54 92
-170 207 -248 247 -32 17 -55 33 -51 37 10 9 23 7 23 -4z m658 -54 c3 -3 -27
-6 -66 -6 -42 0 -74 5 -78 11 -5 8 13 10 66 6 39 -3 74 -8 78 -11z m-174 -33
c14 -20 23 -39 21 -42 -3 -2 -6 -2 -8 0 -2 2 -15 21 -30 42 -16 20 -23 37 -18
37 6 0 22 -17 35 -37z m3230 -69 c24 -9 10 -22 -19 -17 -13 3 -22 9 -19 14 6
11 16 11 38 3z m-4094 -74 c0 -5 -2 -10 -4 -10 -3 0 -8 5 -11 10 -3 6 -1 10 4
10 6 0 11 -4 11 -10z m4200 -10 c0 -5 -9 -10 -21 -10 -11 0 -17 5 -14 10 3 6
13 10 21 10 8 0 14 -4 14 -10z m-3898 -45 c20 -14 41 -25 45 -25 16 0 111
-105 132 -145 33 -63 26 -89 -8 -31 -36 61 -120 148 -183 188 -27 17 -48 33
-48 35 0 10 30 0 62 -22z m3903 -3 c-3 -3 -11 0 -18 7 -9 10 -8 11 6 5 10 -3
15 -9 12 -12z m-6045 -92 c0 -5 -5 -10 -11 -10 -5 0 -7 5 -4 10 3 6 8 10 11
10 2 0 4 -4 4 -10z m-30 -14 c0 -6 -78 -41 -125 -56 -75 -23 -362 -172 -385
-199 -3 -4 -18 -15 -34 -25 -20 -13 -31 -15 -39 -7 -8 8 -7 11 2 11 13 0 151
81 182 107 8 7 23 13 31 13 9 0 18 4 20 9 4 10 210 111 230 112 7 0 31 9 53
19 39 18 65 24 65 16z m6646 -126 c4 -22 10 -40 15 -40 5 0 9 -5 9 -11 0 -6
13 -29 28 -52 15 -23 37 -62 49 -87 11 -25 32 -67 46 -95 15 -27 42 -84 62
-125 20 -41 56 -115 80 -165 24 -49 53 -115 65 -145 12 -30 35 -82 52 -115 17
-33 30 -73 30 -90 -1 -17 14 -62 37 -107 24 -48 37 -86 34 -100 -3 -15 2 -30
11 -38 20 -16 30 -7 31 28 0 27 1 27 75 30 l75 3 -50 -51 c-54 -55 -62 -58
-81 -32 -11 15 -14 15 -28 2 -13 -13 -13 -20 -1 -55 8 -22 21 -45 30 -51 8 -6
15 -15 15 -19 0 -4 6 -21 13 -38 8 -18 21 -54 30 -80 16 -48 16 -49 -3 -54
-11 -3 -20 -9 -20 -14 0 -5 11 -4 24 1 32 12 66 2 66 -21 0 -10 5 -21 10 -24
6 -3 10 -10 10 -15 0 -15 -102 -121 -132 -136 -35 -18 -51 -9 -23 13 16 13 17
15 3 10 -10 -4 -18 -3 -18 1 0 4 8 15 18 24 42 40 47 50 29 63 -26 19 -21 36
8 29 20 -5 25 -3 25 14 0 11 -7 22 -15 26 -8 3 -15 12 -15 21 0 18 -11 20 -27
4 -14 -14 -68 13 -83 42 -7 12 -18 18 -26 15 -8 -3 -14 0 -15 7 0 9 -2 9 -6 0
-11 -28 -25 -12 -19 22 6 29 4 35 -11 35 -14 0 -14 3 6 16 16 11 19 20 12 27
-7 7 -15 6 -26 -3 -14 -12 -15 -10 -10 13 5 17 3 27 -4 27 -6 0 -10 6 -8 13 1
6 -10 13 -25 15 -19 2 -29 11 -37 33 -11 33 -25 37 -39 12 -6 -9 -16 -14 -25
-10 -9 3 -19 2 -22 -3 -4 -6 -17 -7 -31 -4 -17 4 -24 2 -24 -9 0 -17 -24 -40
-33 -31 -3 3 -1 14 5 24 9 14 9 22 1 32 -9 11 -5 20 20 44 18 17 42 34 53 38
42 13 6 76 -43 76 -14 0 -23 6 -23 15 0 8 7 15 15 15 8 0 15 -4 15 -10 0 -5 7
-10 16 -10 23 0 13 19 -21 38 -51 29 -60 52 -19 52 22 0 24 2 14 14 -6 8 -18
12 -26 9 -19 -7 -64 5 -64 17 0 6 11 10 24 10 36 0 39 14 6 27 -23 9 -28 8
-23 -3 3 -9 -2 -14 -17 -14 -20 0 -21 2 -9 16 11 14 10 18 -6 30 -13 10 -22
11 -31 3 -9 -7 -20 -6 -38 6 -17 11 -26 13 -26 6 0 -9 -5 -9 -21 -1 -16 9 -24
8 -38 -4 -10 -9 -21 -13 -24 -10 -4 4 -26 1 -51 -6 -35 -10 -43 -16 -39 -31 5
-16 0 -19 -36 -19 -22 0 -41 5 -41 10 0 6 10 10 22 10 20 0 19 2 -8 18 -74 42
-71 39 -49 56 26 20 34 20 42 0 5 -13 8 -12 25 5 10 12 27 21 36 21 9 0 30 16
46 35 28 33 76 49 76 25 0 -6 10 -5 25 2 13 6 22 15 19 20 -3 5 -12 3 -21 -3
-18 -16 -36 6 -29 35 3 11 -2 25 -12 32 -15 12 -10 13 31 14 35 0 47 4 47 15
0 13 -3 13 -20 3 -17 -11 -22 -10 -30 2 -5 8 -7 22 -5 31 3 9 -1 22 -9 28 -8
7 -13 18 -10 26 3 7 0 16 -7 21 -9 5 -10 2 -6 -9 8 -21 -43 -35 -133 -36 -36
-1 -76 -2 -89 -4 -13 -1 -26 3 -28 10 -3 7 3 10 15 7 10 -3 24 2 32 11 12 15
11 16 -13 10 -15 -4 -43 -4 -61 -1 -28 5 -34 11 -34 29 2 28 16 47 45 58 23 9
32 29 12 29 -5 0 -7 5 -4 10 3 6 17 10 30 10 13 0 35 10 48 23 13 12 33 29 45
37 13 8 34 31 48 51 31 45 143 136 179 145 15 4 30 17 36 31 12 32 3 46 -20
33 -10 -5 -67 -8 -127 -7 -97 3 -117 7 -179 34 -38 17 -71 38 -73 47 -4 20 0
20 76 -4 92 -29 217 -26 205 5 -3 10 8 15 39 18 23 2 49 4 55 5 8 1 15 -15 19
-38z m-515 -91 c-8 -38 -9 -40 -10 -12 -1 17 2 39 5 48 11 29 14 10 5 -36z
m-3831 6 c0 -8 -20 -29 -45 -47 -88 -63 -130 -101 -154 -136 -15 -21 -26 -31
-29 -23 -7 20 79 122 147 174 66 50 81 56 81 32z m4028 -65 c12 0 22 -5 22
-11 0 -6 -9 -8 -21 -4 -16 5 -20 3 -17 -11 5 -30 -20 -26 -36 7 -15 31 -15 31
7 25 12 -3 32 -6 45 -6z m-218 -70 c0 -5 -4 -10 -10 -10 -5 0 -10 5 -10 10 0
6 5 10 10 10 6 0 10 -4 10 -10z m-6856 -55 c-4 -8 -11 -15 -16 -15 -6 0 -5 6
2 15 7 8 14 15 16 15 2 0 1 -7 -2 -15z m7259 -614 c-12 -11 -30 -19 -42 -18
-30 2 -26 11 12 24 48 16 53 15 30 -6z m-4577 -179 c-15 -15 -15 -15 -4 10 7
15 15 23 17 17 2 -6 -4 -18 -13 -27z m5554 -197 c-85 -85 -157 -155 -160 -155
-3 0 -13 21 -23 47 l-17 47 102 106 103 107 75 2 75 1 -155 -155z m419 129
c-13 -14 -138 -141 -278 -280 -176 -176 -257 -251 -262 -242 -5 8 0 21 12 34
21 22 19 64 -2 64 -27 0 10 43 203 237 l212 213 70 0 69 0 -24 -26z m-78 -378
c-441 -441 -424 -428 -457 -350 -17 40 -10 100 12 108 8 3 14 -1 14 -9 0 -8 6
-15 13 -15 6 0 163 151 347 335 l335 335 70 0 70 0 -404 -404z m198 -101
c-278 -278 -510 -505 -515 -505 -16 0 -36 88 -25 108 5 9 209 216 453 460
l444 442 74 0 75 0 -506 -505z m791 502 c0 -1 -289 -291 -643 -645 l-643 -643
-2 68 -2 68 577 577 578 578 67 0 c38 0 68 -1 68 -3z m-460 -762 c-421 -421
-767 -765 -770 -765 -3 0 -7 8 -8 18 -1 9 -5 35 -8 57 l-6 41 707 707 707 707
72 0 71 0 -765 -765z m990 732 c0 -29 -72 -104 -849 -881 -837 -837 -850 -850
-860 -823 -31 80 -97 6 805 908 804 805 830 829 866 829 36 0 38 -2 38 -33z
m-7459 -4 c-12 -20 -14 -14 -5 12 4 9 9 14 11 11 3 -2 0 -13 -6 -23z m-37 -78
c-9 -14 -18 -25 -20 -25 -2 0 2 11 8 25 6 14 15 25 20 25 5 0 1 -11 -8 -25z
m4905 -16 c-7 -14 -14 -18 -21 -11 -13 13 -2 32 18 32 12 0 13 -4 3 -21z m-22
-47 c3 -23 -20 -31 -33 -11 -4 8 -9 7 -15 -2 -4 -7 -12 -10 -16 -5 -9 9 35 48
50 43 6 -2 12 -13 14 -25z m-137 -47 c13 -16 6 -35 -13 -35 -7 0 -20 12 -30
25 -18 25 -18 25 6 25 14 0 30 -7 37 -15z m1936 -953 l-815 -816 -10 29 c-6
17 -16 38 -22 48 -6 11 -9 21 -7 22 2 2 377 378 833 835 l830 831 3 -66 3 -67
-815 -816z m-6671 657 c-19 -29 -35 -47 -35 -39 0 18 64 113 68 101 1 -4 -13
-32 -33 -62z m7485 -67 l0 -68 -774 -774 c-425 -426 -783 -783 -794 -793 -21
-19 -21 -19 -19 15 1 18 -2 46 -6 62 -8 28 17 54 790 828 439 439 799 798 800
798 2 0 3 -31 3 -68z m-1978 3 c-4 -21 -49 -64 -68 -65 -6 0 -21 -9 -34 -20
-13 -12 -30 -18 -38 -15 -19 7 -62 -21 -62 -40 0 -8 -7 -15 -15 -15 -8 0 -15
6 -15 14 0 8 -6 17 -12 19 -8 3 -6 6 4 6 9 1 23 9 30 19 7 9 29 26 48 36 19
11 52 34 74 51 45 37 93 43 88 10z m-357 -195 c-3 -5 -12 -10 -18 -10 -7 0 -6
4 3 10 19 12 23 12 15 0z m1568 -942 c-471 -471 -769 -762 -771 -753 -2 8 -8
15 -13 15 -5 0 -9 19 -9 42 l0 43 778 778 777 777 3 -67 3 -67 -768 -768z
m-1221 732 c15 -16 36 -30 45 -30 26 0 36 -10 59 -61 16 -33 19 -50 12 -63 -6
-10 -8 -31 -5 -46 6 -29 -6 -46 -48 -68 -29 -15 -78 -4 -70 16 3 8 0 19 -7 23
-9 6 -9 11 0 21 14 17 -3 39 -23 32 -20 -8 -27 13 -9 30 9 9 12 21 7 28 -4 7
-8 18 -8 23 -1 6 -7 22 -14 37 -12 23 -18 26 -42 21 -26 -5 -29 -3 -26 18 2
12 12 26 23 30 10 4 15 8 11 8 -5 1 -5 6 -1 12 11 19 67 1 96 -31z m-5181
-121 c-14 -32 -64 -92 -55 -64 8 22 57 95 62 91 1 -2 -2 -14 -7 -27z m7169
-67 l0 -68 -728 -732 c-400 -403 -733 -732 -740 -732 -6 0 -14 10 -16 23 -3
12 -8 35 -11 51 -6 28 31 66 742 778 411 411 749 748 750 748 2 0 3 -31 3 -68z
m-7230 -27 c0 -10 -66 -101 -82 -113 -10 -7 -25 -28 -34 -47 -9 -19 -20 -35
-25 -35 -11 0 -1 19 66 122 28 43 56 78 63 78 6 0 12 -2 12 -5z m5196 -48 c9
-8 -57 -47 -80 -47 -15 0 -16 3 -7 14 6 8 11 18 10 22 -1 5 -1 12 0 15 1 7 70
4 77 -4z m-6 -47 c0 -5 -5 -10 -11 -10 -5 0 -7 5 -4 10 3 6 8 10 11 10 2 0 4
-4 4 -10z m162 -84 c10 -7 25 -31 34 -52 9 -21 22 -46 29 -54 8 -9 11 -21 6
-28 -13 -21 -61 4 -74 38 -6 17 -17 30 -23 30 -18 0 -25 27 -14 55 11 28 18
30 42 11z m1176 -863 c-512 -512 -709 -703 -728 -705 -21 -3 -25 -9 -28 -40
-4 -53 -20 -62 -84 -49 -29 5 -90 13 -136 16 -45 4 -85 11 -88 16 -3 5 -10 7
-15 4 -9 -6 -280 34 -289 42 -5 5 81 -2 210 -17 126 -15 254 -21 267 -13 6 4
14 29 18 56 6 42 5 47 -11 47 -15 0 -16 2 -5 9 19 12 -2 23 -31 16 -28 -7 -70
27 -62 50 4 10 -3 18 -21 25 -15 6 -25 16 -23 23 5 13 69 22 102 13 31 -8 106
-79 106 -99 0 -10 4 -26 10 -36 8 -15 124 97 757 731 l748 749 3 -68 3 -67
-703 -703z m-6698 792 c-7 -9 -15 -13 -18 -10 -3 2 1 11 8 20 7 9 15 13 18 10
3 -2 -1 -11 -8 -20z m720 -55 c0 -5 -5 -10 -10 -10 -6 0 -13 -8 -17 -17 -10
-28 -67 -113 -75 -113 -5 0 -8 4 -8 8 0 8 58 100 79 126 15 18 31 21 31 6z
m4880 -40 c0 -5 -5 -10 -11 -10 -5 0 -7 5 -4 10 3 6 8 10 11 10 2 0 4 -4 4
-10z m-65 -70 c-3 -5 -13 -10 -21 -10 -8 0 -14 5 -14 10 0 6 9 10 21 10 11 0
17 -4 14 -10z m-4945 -65 c-7 -8 -17 -15 -23 -15 -5 0 -2 9 8 20 21 23 35 19
15 -5z m4970 21 c0 -11 -19 -15 -25 -6 -3 5 1 10 9 10 9 0 16 -2 16 -4z m44
-12 c12 -5 13 -10 5 -25 -14 -27 -29 -24 -29 6 0 27 1 28 24 19z m1796 -101
l0 -68 -552 -552 -553 -553 -67 0 c-38 0 -68 2 -68 5 0 7 1224 1234 1233 1234
4 1 7 -29 7 -66z m-6840 49 c0 -4 -11 -21 -25 -37 -57 -69 -105 -134 -105
-142 0 -6 -13 -24 -30 -41 -16 -18 -30 -36 -30 -41 0 -5 -7 -12 -16 -15 -21
-8 -21 -7 129 203 51 72 77 97 77 73z m6840 -340 l0 -67 -407 -408 -406 -407
-71 0 -71 0 475 475 c261 261 476 475 477 475 2 0 3 -30 3 -68z m-1936 29 c76
-12 112 -30 79 -42 -10 -3 14 -5 52 -4 39 1 81 7 94 14 21 12 23 11 18 -3 -4
-10 -1 -16 8 -16 8 0 18 -12 21 -26 5 -21 11 -25 30 -21 30 5 30 -5 0 -40 -21
-24 -27 -26 -47 -17 -22 10 -52 19 -149 44 -91 23 -131 37 -142 48 -7 7 -24
12 -38 12 -17 0 -34 10 -48 30 -30 39 -28 43 16 37 20 -4 68 -11 106 -16z
m256 -1 c0 -5 -4 -10 -10 -10 -5 0 -10 5 -10 10 0 6 5 10 10 10 6 0 10 -4 10
-10z m-5411 -49 c-31 -42 -38 -30 -8 14 13 19 25 30 27 25 2 -5 -7 -23 -19
-39z m296 -130 c-3 -6 -11 -11 -17 -11 -6 0 -6 6 2 15 14 17 26 13 15 -4z
m5188 -22 c7 -26 -4 -23 -25 5 -17 23 -17 24 1 19 11 -3 21 -13 24 -24z m1607
-127 l0 -67 -258 -258 -258 -258 -67 3 -67 3 318 321 c174 177 320 322 325
323 4 0 7 -29 7 -67z m0 -295 l0 -63 -112 -112 -112 -112 -63 0 c-35 0 -63 3
-63 7 0 9 333 343 342 343 4 0 8 -28 8 -63z m-6820 -177 c0 -5 -5 -10 -11 -10
-5 0 -7 5 -4 10 3 6 8 10 11 10 2 0 4 -4 4 -10z m6820 -80 c0 -27 -3 -30 -32
-30 l-32 0 29 30 c16 17 30 30 32 30 2 0 3 -13 3 -30z m-2163 -36 c-3 -3 -12
-4 -19 -1 -8 3 -5 6 6 6 11 1 17 -2 13 -5z m452 -181 c61 -57 79 -71 127 -103
49 -32 104 -92 104 -113 0 -5 -28 16 -62 46 -35 30 -74 60 -87 67 -14 7 -30
17 -35 21 -6 5 -26 20 -43 35 -18 14 -33 34 -33 45 0 23 5 24 29 2z m-493
-124 c19 -22 19 -22 -3 -10 -13 6 -23 16 -23 21 0 15 5 12 26 -11z m-4321
-174 c51 -50 20 -167 -72 -275 -39 -45 -69 -54 -59 -17 4 18 -2 31 -24 52 -17
16 -30 25 -30 21 0 -5 -6 -4 -12 2 -8 5 -22 6 -33 1 -14 -5 -16 -8 -5 -9 8 -2
18 -2 22 -1 3 0 5 -7 4 -16 -2 -10 -14 -18 -32 -19 -16 -2 -23 -1 -16 2 6 3
12 11 12 17 0 8 -4 7 -12 -1 -19 -19 -41 -15 -33 6 4 9 7 25 7 34 -1 21 36 33
69 23 16 -5 19 -4 14 5 -12 20 -94 5 -163 -31 -62 -31 -63 -31 -85 -13 -12 10
-19 15 -15 10 4 -5 0 -22 -9 -37 -13 -22 -20 -26 -30 -17 -18 14 -16 28 3 28
9 0 13 5 10 13 -3 6 -9 19 -12 29 -3 9 -17 19 -30 22 -31 8 -31 26 0 26 14 0
28 5 31 10 4 6 14 10 23 9 10 -1 24 0 32 4 8 3 47 8 87 11 59 5 81 12 120 38
76 52 166 98 191 98 13 0 34 -11 47 -25z m4940 -45 c3 -5 1 -10 -4 -10 -6 0
-11 5 -11 10 0 6 2 10 4 10 3 0 8 -4 11 -10z m-305 -25 c20 -24 7 -26 -25 -5
-27 18 -28 20 -9 20 12 0 27 -7 34 -15z m90 -17 c0 -6 -7 -5 -15 2 -8 7 -15
17 -15 22 0 6 7 5 15 -2 8 -7 15 -17 15 -22z m98 -103 c27 -21 56 -35 73 -35
22 0 32 -7 44 -31 21 -41 13 -46 -32 -23 -42 21 -173 149 -173 167 0 7 10 -1
21 -16 12 -15 42 -43 67 -62z m-5412 18 c11 -33 39 -83 46 -83 5 0 8 -9 8 -20
0 -30 -28 -14 -35 21 -4 16 -13 29 -21 29 -8 0 -14 9 -14 19 0 27 -15 34 -30
16 -7 -8 -23 -15 -36 -15 -23 0 -24 -1 -10 -23 14 -21 14 -24 -4 -35 -11 -7
-20 -9 -19 -5 3 19 -3 21 -31 11 -24 -8 -28 -13 -20 -23 8 -10 7 -15 -2 -19
-7 -3 0 -3 17 0 16 3 34 6 39 7 4 1 10 -3 13 -9 2 -6 -10 -14 -27 -17 -21 -5
-30 -12 -30 -27 0 -11 -7 -20 -15 -20 -8 0 -15 -7 -15 -15 0 -8 -4 -15 -10
-15 -5 0 -10 -4 -10 -8 0 -5 14 -7 30 -4 18 3 30 0 30 -7 0 -14 -50 -14 -87 0
-16 6 -29 6 -31 1 -1 -5 -13 -7 -25 -5 -14 3 -29 -2 -36 -11 -20 -24 -29 -19
-24 12 4 21 2 24 -6 12 -7 -10 -11 -11 -11 -2 0 7 -13 12 -30 12 -19 0 -30 5
-30 14 0 16 -17 31 -47 40 -17 5 -23 3 -23 -7 0 -8 -7 -17 -15 -21 -18 -6 -18
-5 -6 27 9 22 7 26 -16 32 -16 4 -39 -1 -64 -13 -29 -15 -36 -16 -27 -5 7 8
21 19 33 24 11 5 31 18 45 29 19 15 50 23 110 30 77 8 185 28 283 51 20 5 55
13 77 18 23 5 44 11 47 15 11 11 24 6 29 -11z m5282 -58 c-3 -3 -9 2 -12 12
-6 14 -5 15 5 6 7 -7 10 -15 7 -18z m-5331 9 c-3 -3 -12 -4 -19 -1 -8 3 -5 6
6 6 11 1 17 -2 13 -5z m293 -25 c0 -5 -7 -9 -15 -9 -8 0 -15 7 -15 15 0 9 6
12 15 9 8 -4 15 -10 15 -15z m185 -9 c3 -5 -1 -10 -9 -10 -9 0 -16 5 -16 10 0
6 4 10 9 10 6 0 13 -4 16 -10z m-220 -21 c8 -25 1 -34 -20 -26 -19 8 -20 47
-1 47 8 0 18 -9 21 -21z m105 7 c0 -11 -19 -15 -25 -6 -3 5 1 10 9 10 9 0 16
-2 16 -4z m-65 -26 c-3 -5 -10 -10 -16 -10 -5 0 -9 5 -9 10 0 6 7 10 16 10 8
0 12 -4 9 -10z m-825 -45 c0 -8 -4 -15 -10 -15 -5 0 -7 7 -4 15 4 8 8 15 10
15 2 0 4 -7 4 -15z m525 -3 c-3 -3 -11 0 -18 7 -9 10 -8 11 6 5 10 -3 15 -9
12 -12z m5605 3 c0 -8 -2 -15 -4 -15 -2 0 -6 7 -10 15 -3 8 -1 15 4 15 6 0 10
-7 10 -15z m-208 -45 c3 -17 1 -33 -4 -36 -4 -3 -8 3 -8 13 0 10 -3 29 -7 42
-4 16 -2 22 4 18 6 -4 13 -21 15 -37z m-6004 16 c-7 -8 -15 -12 -17 -11 -5 6
10 25 20 25 5 0 4 -6 -3 -14z m-43 -36 c-3 -5 -12 -10 -18 -10 -7 0 -6 4 3 10
19 12 23 12 15 0z m1534 -36 c80 -18 147 -60 157 -99 12 -48 -4 -93 -44 -120
-39 -27 -58 -32 -46 -14 4 8 -1 9 -15 4 -12 -4 -28 -2 -35 4 -16 14 -152 7
-170 -9 -7 -5 -16 -7 -19 -3 -4 3 -16 -2 -27 -12 -18 -16 -20 -16 -20 -2 0 10
-4 17 -10 17 -5 0 -10 -5 -10 -10 0 -6 -8 -13 -17 -17 -10 -3 -29 -15 -43 -27
-16 -14 -20 -15 -11 -3 12 15 11 17 -4 17 -9 0 -19 -9 -22 -21 -4 -15 -8 -17
-14 -8 -6 11 -13 10 -33 -1 -31 -16 -45 -6 -28 20 10 17 7 21 -26 35 -23 11
-43 29 -51 46 -7 16 -19 29 -26 29 -8 0 -17 9 -20 20 -9 28 -25 25 -68 -15
-21 -19 -44 -35 -52 -35 -9 0 -12 -6 -8 -16 4 -11 0 -15 -13 -13 -10 1 -27 -1
-37 -6 -10 -4 -24 -2 -33 6 -14 12 -14 14 3 20 13 5 6 8 -22 9 -22 2 -46 2
-53 1 -8 -1 -19 3 -27 9 -10 8 -22 6 -50 -10 -20 -11 -41 -18 -46 -14 -5 3 -8
0 -7 -6 2 -6 -19 -20 -46 -30 -39 -15 -53 -17 -64 -8 -11 10 -17 9 -27 -5 -7
-9 -20 -17 -29 -17 -9 0 -16 -6 -16 -14 0 -18 -59 -30 -134 -28 -32 2 -64 -2
-71 -8 -13 -11 -75 -2 -75 11 0 5 -7 6 -15 3 -8 -4 -15 -1 -15 5 0 6 -6 11
-14 11 -23 0 -31 22 -13 35 24 18 21 25 -12 25 -16 0 -34 7 -41 15 -10 12 -9
15 4 15 11 0 14 4 9 13 -4 6 -8 21 -8 31 0 31 -20 29 -54 -4 -22 -23 -37 -30
-51 -25 -11 4 -20 2 -20 -4 0 -6 -12 -11 -27 -11 -25 1 -26 2 -10 14 9 7 17
19 17 25 0 20 29 43 47 37 13 -5 14 -4 4 8 -14 16 2 32 20 20 15 -9 93 -9 107
0 6 4 22 4 35 0 15 -3 38 1 56 10 22 12 67 18 149 21 130 4 256 17 382 40 155
28 243 37 415 45 293 12 368 11 444 -6z m-1459 2 c0 -3 -4 -8 -10 -11 -5 -3
-10 -1 -10 4 0 6 5 11 10 11 6 0 10 -2 10 -4z m4205 -36 c16 -16 37 -30 47
-30 25 0 78 -28 78 -40 0 -16 -27 -11 -34 5 -3 8 -9 14 -13 13 -16 -3 -69 15
-95 33 -14 11 -33 19 -41 19 -18 0 -30 14 -20 24 15 15 51 4 78 -24z m1790 10
c3 -5 1 -10 -4 -10 -6 0 -11 5 -11 10 0 6 2 10 4 10 3 0 8 -4 11 -10z m22 -70
c3 -17 10 -33 14 -36 5 -3 9 -14 9 -25 0 -10 4 -19 9 -19 14 0 34 -58 26 -77
-6 -16 -8 -15 -20 7 -7 14 -11 28 -9 32 2 3 0 9 -6 13 -6 4 -8 10 -5 15 3 4
-2 13 -10 20 -8 7 -15 27 -15 44 0 18 -5 37 -12 44 -9 9 -9 12 0 12 7 0 15
-14 19 -30z m-1625 -32 c2 -6 20 -11 39 -11 19 0 41 -7 49 -17 8 -9 23 -14 33
-12 10 2 28 -9 44 -27 25 -28 63 -45 48 -21 -3 6 0 10 8 10 8 0 14 -8 13 -17
-1 -13 7 -19 27 -21 15 -2 27 -7 27 -12 0 -18 -34 -19 -69 -2 -20 10 -52 25
-71 33 -72 30 -190 93 -190 101 0 13 38 9 42 -4z m1738 -192 c0 -62 -9 -116
-20 -116 -12 0 -19 39 -9 46 6 3 7 15 3 26 -8 27 5 110 17 103 5 -4 9 -30 9
-59z m-4993 -43 c4 -10 13 -24 20 -32 8 -7 11 -16 8 -19 -6 -6 -54 47 -55 61
0 14 21 7 27 -10z m3176 7 c8 0 7 -4 -1 -12 -9 -9 -16 -8 -30 6 -16 18 -16 19
1 12 10 -3 24 -6 30 -6z m-3216 -33 c4 -7 0 -8 -13 -3 -10 5 -27 11 -36 13
-10 3 -18 9 -18 14 0 11 58 -10 67 -24z m-527 -27 c74 -13 192 -24 330 -29
146 -5 229 -13 260 -23 25 -8 63 -20 85 -26 229 -65 365 -113 485 -172 129
-63 274 -99 325 -80 14 5 48 10 75 10 27 0 83 5 125 11 65 10 74 14 63 26 -9
11 -24 13 -58 9 -87 -12 -115 -18 -133 -28 -22 -11 -60 -1 -54 15 2 7 42 15
102 19 54 4 112 12 128 18 35 12 58 -1 50 -28 -5 -22 33 -40 67 -31 116 32
245 59 279 59 149 0 315 -232 387 -540 8 -36 20 -81 26 -100 7 -19 15 -53 19
-75 4 -22 12 -65 17 -95 21 -105 22 -128 9 -138 -7 -6 -53 -18 -102 -26 -50
-9 -133 -23 -185 -32 -158 -27 -170 -28 -170 -11 0 9 4 18 8 21 5 3 20 36 34
73 43 112 55 428 22 558 -20 76 -36 105 -29 50 3 -22 8 -89 12 -148 5 -97 4
-109 -13 -121 -23 -17 -44 1 -44 38 0 14 -4 28 -10 31 -16 10 -11 25 6 18 14
-5 14 -3 3 15 -7 11 -19 18 -26 15 -7 -3 -13 0 -13 6 0 6 5 11 10 11 20 0 10
38 -12 44 -34 9 -50 7 -43 -4 3 -5 14 -10 24 -10 13 0 18 -8 18 -32 1 -18 4
-48 8 -65 8 -35 0 -40 -27 -19 -10 7 -15 20 -12 32 3 12 -3 27 -15 38 -16 15
-26 16 -49 8 -16 -5 -71 -15 -123 -22 -52 -7 -107 -18 -124 -25 -16 -8 -42
-17 -57 -20 -25 -6 -28 -5 -28 19 0 15 -8 31 -20 38 -28 18 -25 46 5 54 22 5
23 8 13 28 -7 11 -11 26 -10 32 1 6 -11 23 -28 37 -16 15 -30 33 -30 41 0 7
-9 25 -20 39 -11 14 -20 32 -20 41 0 8 -10 31 -22 51 -18 31 -23 34 -30 20 -7
-11 -2 -36 17 -83 19 -48 27 -87 28 -138 2 -70 1 -74 -30 -105 -18 -17 -33
-36 -33 -41 0 -13 -32 -44 -53 -51 -10 -4 -15 -11 -12 -17 14 -23 -45 -8 -64
16 -12 15 -21 22 -21 15 0 -6 -9 -11 -20 -11 -10 0 -24 -9 -30 -20 -9 -17 -14
-18 -31 -7 -16 10 -21 9 -28 -2 -5 -8 -16 -11 -30 -6 -21 6 -30 -8 -11 -20 6
-3 10 -15 10 -26 0 -14 -7 -19 -27 -18 -16 0 -22 3 -15 6 17 7 15 43 -2 43 -8
0 -18 -5 -21 -10 -4 -6 -24 -18 -46 -27 -21 -8 -39 -19 -39 -23 0 -4 -9 -10
-20 -13 -28 -7 -25 8 5 21 14 6 25 16 25 22 0 7 -6 8 -18 1 -10 -6 -29 -7 -41
-4 -14 3 -26 1 -31 -7 -12 -20 -43 -4 -35 19 7 24 -2 29 -40 20 -23 -5 -25 -7
-8 -8 12 0 27 -10 33 -21 9 -18 8 -20 -15 -20 -14 0 -25 -5 -25 -11 0 -6 -8
-18 -17 -27 -16 -16 -16 -16 -10 1 4 9 2 17 -4 17 -6 0 -8 7 -5 15 7 20 -20
31 -39 15 -8 -7 -23 -9 -36 -5 -17 6 -19 9 -8 17 11 7 11 11 2 15 -7 2 -13 11
-13 19 0 8 -7 14 -15 14 -8 0 -15 -9 -15 -20 0 -21 -34 -45 -50 -35 -6 3 -10
13 -10 21 0 11 -7 13 -26 8 -20 -5 -25 -3 -22 7 3 8 11 13 19 11 21 -5 59 7
59 20 0 7 -14 9 -40 5 -26 -3 -40 -1 -41 6 -1 7 -5 -1 -8 -18 -4 -17 -3 -36 3
-43 8 -11 5 -13 -14 -10 -23 3 -25 7 -24 61 l2 57 -33 0 c-32 0 -45 15 -49 57
-1 6 -5 15 -9 19 -13 13 -8 26 8 20 13 -5 19 5 17 26 -1 3 5 11 13 18 7 6 11
18 8 26 -3 8 -2 14 3 13 5 0 20 2 32 6 18 6 21 10 10 17 -11 8 -10 11 2 15 8
4 26 19 40 35 13 15 32 28 42 28 19 0 22 9 10 25 -14 19 -91 75 -104 75 -16 1
-48 24 -48 36 0 12 -67 33 -77 24 -4 -4 -21 1 -38 11 -16 10 -24 19 -17 19 6
0 12 4 12 9 0 13 -109 18 -114 6 -2 -6 -9 -5 -17 3 -18 17 -45 15 -75 -5 -17
-11 -28 -13 -32 -6 -4 6 -18 10 -32 9 -14 0 -25 5 -25 12 0 15 -54 62 -72 62
-7 0 -13 -6 -13 -14 0 -15 -51 -29 -75 -19 -9 3 -14 12 -11 19 7 19 -21 18
-32 -2 -8 -14 -10 -14 -21 0 -11 13 -11 16 3 16 22 0 20 13 -6 30 -12 8 -33
25 -46 38 -22 21 -26 22 -42 7 -9 -8 -24 -13 -34 -9 -9 3 -23 1 -30 -5 -10 -9
-16 -9 -21 -1 -5 8 -12 7 -24 -4 -10 -9 -32 -19 -49 -22 -26 -5 -32 -3 -32 10
0 28 -71 -60 -75 -94 -3 -26 -1 -30 13 -26 19 6 60 -20 49 -30 -4 -4 -13 -1
-21 5 -8 7 -17 8 -20 3 -8 -14 -56 -2 -56 14 0 16 -37 37 -51 29 -5 -4 -24 -8
-43 -11 -38 -4 -76 29 -95 85 -19 59 -14 90 23 127 l34 34 164 1 c98 0 187 6
223 14 85 19 154 18 285 -5z m-1231 -34 c-2 -2 -15 -9 -29 -15 -24 -11 -24
-11 -6 3 16 13 49 24 35 12z m5064 -10 c4 -10 1 -13 -9 -9 -7 3 -14 9 -14 14
0 14 17 10 23 -5z m-5225 -32 c12 -8 20 -20 16 -25 -4 -7 -10 -7 -17 0 -19 19
-86 12 -136 -13 -127 -65 -195 -228 -222 -531 -10 -114 -10 -140 5 -215 19
-93 46 -188 98 -349 31 -95 38 -107 69 -124 19 -10 52 -36 73 -58 22 -23 50
-45 62 -50 27 -9 107 2 127 19 7 6 18 7 26 3 27 -17 -34 -42 -106 -44 -55 -2
-84 4 -150 29 -88 34 -95 33 -108 -18 -13 -50 -27 -51 -98 -13 -37 20 -79 38
-94 41 -165 28 -188 45 -68 48 29 1 40 6 43 19 3 13 -4 17 -30 17 -44 1 -74
39 -60 78 9 28 2 66 -14 68 -30 3 -64 18 -64 29 0 8 7 21 17 30 13 14 14 18 2
25 -8 6 -16 4 -21 -3 -4 -6 -10 -8 -14 -4 -4 4 5 18 20 32 24 23 27 31 21 63
-4 20 -11 42 -15 47 -14 17 -33 177 -22 184 5 3 12 29 15 56 3 28 8 64 12 80
3 17 8 40 11 53 2 13 8 20 13 18 14 -9 28 15 35 59 23 135 89 271 175 360 56
58 87 78 155 101 53 17 211 9 244 -12z m59 0 c-3 -3 -12 -4 -19 -1 -8 3 -5 6
6 6 11 1 17 -2 13 -5z m-127 -58 c0 -2 -7 -7 -16 -10 -8 -3 -12 -2 -9 4 6 10
25 14 25 6z m1455 -106 c-3 -5 -14 -10 -23 -10 -15 0 -15 2 -2 10 20 13 33 13
25 0z m295 -54 c0 -2 -7 -7 -16 -10 -8 -3 -12 -2 -9 4 6 10 25 14 25 6z m-700
-26 c0 -14 -50 -17 -67 -4 -16 11 -13 13 25 12 23 0 42 -4 42 -8z m248 -2 c9
-9 12 -9 12 0 0 7 5 12 11 12 6 0 8 -8 4 -19 -7 -23 21 -36 51 -24 17 6 17 5
5 -11 -20 -24 -61 -17 -88 15 -13 15 -23 30 -23 33 0 10 15 7 28 -6z m-168
-18 c0 -11 5 -20 10 -20 6 0 10 -4 10 -8 0 -4 -29 -9 -65 -10 -41 -1 -64 2
-60 8 3 6 15 10 26 10 11 0 17 5 14 10 -3 6 -2 10 4 10 5 0 13 -4 16 -10 10
-17 25 -11 25 10 0 11 5 20 10 20 6 0 10 -9 10 -20z m67 8 c16 -27 12 -43 -10
-43 -17 0 -22 6 -23 28 -1 28 18 37 33 15z m63 -25 c0 -24 -15 -39 -24 -24 -4
5 0 11 6 14 9 3 7 9 -7 20 -20 16 -20 16 3 14 16 -1 22 -8 22 -24z m110 17 c0
-5 -7 -10 -15 -10 -8 0 -15 5 -15 10 0 6 7 10 15 10 8 0 15 -4 15 -10z m55
-30 c3 -5 -1 -10 -9 -10 -9 0 -16 5 -16 10 0 6 4 10 9 10 6 0 13 -4 16 -10z
m1649 -226 c13 -5 14 -9 5 -20 -13 -16 -29 -9 -29 12 0 16 2 16 24 8z m-2672
-86 c29 -14 48 -31 50 -43 2 -14 10 -19 28 -18 14 1 18 -1 8 -3 -9 -3 -19 -16
-22 -29 -4 -16 -11 -22 -21 -19 -11 5 -15 -2 -15 -26 0 -21 -4 -30 -12 -27 -7
2 -13 17 -13 32 -1 33 -15 41 -46 25 -20 -11 -21 -10 -16 9 3 11 2 21 -2 21
-14 0 -29 -23 -25 -36 14 -47 14 -47 29 -34 13 11 14 10 9 -4 -3 -9 -10 -16
-15 -16 -4 0 -6 -7 -3 -15 11 -28 -20 -6 -45 33 -17 24 -25 52 -25 81 -1 40 3
47 33 68 42 29 45 29 103 1z m1362 -4 c3 -9 4 -20 1 -24 -3 -5 4 -11 15 -15
25 -8 15 -29 -11 -22 -10 3 -21 2 -24 -3 -6 -10 30 -20 71 -20 21 0 34 -6 39
-17 10 -24 12 -63 4 -69 -4 -2 -6 -20 -4 -39 3 -27 -1 -35 -16 -40 -12 -4 -16
-11 -12 -18 9 -13 11 -66 3 -65 -35 2 -43 -30 -10 -39 11 -3 20 -12 20 -19 0
-19 -44 -18 -60 1 -15 18 -31 10 -23 -10 3 -9 -1 -15 -9 -15 -7 0 -29 -8 -48
-19 -36 -19 -88 -13 -75 9 3 6 -2 13 -11 17 -34 13 -56 44 -52 73 4 27 3 27
-30 18 -30 -8 -36 -7 -49 12 -12 17 -17 19 -24 9 -6 -11 -11 -11 -21 -1 -16
16 -28 15 -28 -2 0 -7 -12 -16 -27 -19 -36 -7 -43 0 -9 9 14 3 26 13 26 21 0
11 -6 13 -22 8 -47 -15 -79 -17 -91 -7 -8 7 -26 8 -48 3 -39 -9 -82 -30 -61
-31 7 0 10 -5 7 -10 -4 -6 -13 -7 -24 -1 -10 6 -27 7 -39 4 -13 -3 -35 3 -55
16 -39 24 -72 28 -64 8 4 -11 -3 -12 -31 -7 -21 3 -47 12 -60 19 -13 7 -32 9
-45 5 -29 -9 -91 -9 -105 0 -7 4 -12 1 -12 -9 0 -12 -6 -15 -22 -10 -40 11
-68 28 -68 41 0 8 -12 20 -27 28 l-28 15 35 1 35 1 -33 17 c-32 16 -35 16 -47
-1 -11 -16 -14 -16 -28 -2 -9 8 -21 15 -27 15 -7 0 -10 7 -6 15 3 8 -2 18 -11
23 -19 11 -8 33 12 25 8 -3 15 -2 15 2 0 11 -26 33 -46 38 -17 4 -17 5 3 6 12
0 24 -3 27 -8 3 -4 20 -11 37 -15 36 -7 160 -66 171 -81 4 -6 19 -5 40 2 82
29 160 35 301 22 102 -9 144 -9 162 -1 14 6 55 14 92 18 38 4 86 15 107 25 22
11 59 19 83 19 24 0 61 9 83 20 22 11 44 20 50 20 17 0 53 37 46 48 -3 6 0 13
6 15 25 10 46 7 52 -9z m74 -32 c2 -7 -2 -10 -12 -6 -9 3 -16 11 -16 16 0 13
23 5 28 -10z m1652 -57 c0 -3 -12 -10 -27 -16 -20 -8 -24 -13 -13 -16 51 -17
98 -48 108 -71 6 -15 21 -39 33 -54 19 -23 23 -41 25 -117 1 -67 -2 -93 -12
-102 -8 -6 -14 -20 -14 -31 0 -10 -7 -21 -15 -24 -9 -4 -13 -13 -10 -24 9 -28
-10 -63 -58 -109 -49 -47 -90 -74 -128 -86 -24 -8 -24 -8 -5 14 28 31 10 26
-19 -5 -33 -36 -104 -43 -177 -19 -61 19 -91 44 -123 100 -30 54 -31 111 -1
224 22 87 27 96 72 136 60 53 202 125 246 125 29 0 30 1 13 13 -17 13 -14 16
36 40 55 27 69 31 69 22z m-3033 -127 c-3 -8 -6 -5 -6 6 -1 11 2 17 5 13 3 -3
4 -12 1 -19z m1723 17 c0 -8 -62 -37 -67 -31 -10 9 22 35 45 36 12 0 22 -2 22
-5z m-1724 -55 c9 0 12 -4 9 -10 -4 -6 -13 -5 -25 2 -10 7 -16 17 -13 22 4 6
8 5 11 -2 2 -7 10 -12 18 -12z m1712 -4 c28 -9 19 -26 -15 -26 -19 0 -24 -4
-19 -16 3 -8 2 -12 -4 -9 -6 3 -7 18 -4 32 6 23 4 25 -17 19 l-24 -7 25 15
c14 8 27 11 30 7 3 -5 15 -11 28 -15z m-61 -52 c-3 -3 -12 -4 -19 -1 -8 3 -5
6 6 6 11 1 17 -2 13 -5z m-2687 -14 c0 -5 -2 -10 -4 -10 -3 0 -8 5 -11 10 -3
6 -1 10 4 10 6 0 11 -4 11 -10z m2744 -12 c-8 -27 -12 -33 -19 -27 -7 8 7 49
17 49 5 0 6 -10 2 -22z m-74 -28 c0 -19 -18 -19 -23 -1 -3 14 -1 18 9 14 8 -3
14 -9 14 -13z m-2680 -10 c-6 -11 -13 -20 -15 -20 -3 0 -5 9 -5 20 0 11 7 20
15 20 13 0 14 -4 5 -20z m2494 -25 c-4 -8 -10 -12 -15 -9 -11 6 -2 24 11 24 5
0 7 -7 4 -15z m156 -80 c-14 -17 -40 -20 -40 -6 0 8 18 16 44 20 5 0 3 -6 -4
-14z m-119 -16 c-24 -22 -37 -20 -28 6 4 8 16 15 29 15 l22 0 -23 -21z m-1702
-48 c23 -22 37 -42 32 -45 -5 -4 -12 -2 -16 4 -11 19 -25 10 -25 -16 0 -21 -4
-24 -20 -19 -24 8 -24 7 -4 -35 19 -37 125 -148 168 -174 31 -20 30 -22 10 29
-10 23 49 19 71 -5 18 -19 17 -20 -3 -20 -12 0 -19 -6 -18 -15 3 -22 16 -31
16 -11 0 14 5 17 25 12 18 -5 25 -2 25 9 0 8 -5 15 -12 15 -6 0 -8 3 -5 6 4 4
-3 15 -15 25 -11 11 -17 19 -11 19 5 0 20 -11 33 -25 19 -20 26 -22 43 -14 15
8 22 8 28 -2 14 -23 10 -30 -10 -19 -11 5 -22 10 -25 10 -9 0 -7 -23 3 -39 8
-12 12 -12 25 -2 19 16 36 6 36 -20 0 -21 -10 -25 -27 -8 -18 18 -100 20 -107
2 -5 -12 1 -14 34 -8 33 6 40 4 40 -9 0 -9 8 -20 18 -23 9 -4 20 -11 24 -17
12 -17 -2 -27 -23 -15 -11 6 -27 8 -34 5 -9 -3 -12 0 -9 8 3 8 1 17 -5 21 -6
3 -11 0 -11 -8 0 -31 -43 -2 -148 100 -122 119 -137 130 -158 112 -17 -14 -33
-4 -17 12 7 7 1 27 -22 65 -32 53 -33 56 -17 87 29 60 55 62 111 8z m-838 -8
c13 -16 12 -17 -3 -4 -10 7 -18 15 -18 17 0 8 8 3 21 -13z m2646 1 c-3 -3 -12
-4 -19 -1 -8 3 -5 6 6 6 11 1 17 -2 13 -5z m2699 -179 c-19 -15 -46 -20 -46
-10 0 6 40 24 55 24 6 0 1 -6 -9 -14z m-5599 -110 c6 -14 9 -25 7 -25 -11 0
-42 35 -38 42 9 14 19 9 31 -17z m5408 -5 c3 -5 2 -10 -4 -10 -5 0 -13 5 -16
10 -3 6 -2 10 4 10 5 0 13 -4 16 -10z m-5334 -43 c-13 -13 -26 -3 -16 12 3 6
11 8 17 5 6 -4 6 -10 -1 -17z m1389 -27 c0 -5 -2 -10 -4 -10 -3 0 -8 5 -11 10
-3 6 -1 10 4 10 6 0 11 -4 11 -10z m-1330 -10 c13 -9 13 -10 0 -9 -8 0 -24 4
-35 9 l-20 9 20 0 c11 0 27 -4 35 -9z m5066 -55 c-11 -8 -25 -15 -30 -15 -6 0
-2 7 8 15 11 8 25 15 30 15 6 0 2 -7 -8 -15z m114 0 c-7 -9 -15 -13 -17 -11
-7 7 7 26 19 26 6 0 6 -6 -2 -15z m-3880 -40 c7 -8 16 -12 21 -9 5 3 9 0 9 -6
0 -6 4 -9 8 -6 4 3 25 -10 45 -29 20 -18 39 -29 42 -24 9 13 18 11 41 -7 18
-15 18 -15 -8 -9 -16 3 -28 1 -28 -5 0 -5 9 -10 20 -10 12 0 36 -16 56 -35 19
-19 39 -35 43 -35 5 0 12 -7 15 -15 6 -16 -50 12 -119 59 -37 25 -175 138
-175 142 0 10 19 2 30 -11z m3675 -66 c4 -6 13 -8 21 -5 26 10 14 -2 -18 -18
-36 -18 -42 -16 -33 13 7 23 20 27 30 10z m4663 -183 c-2 -13 -12 -22 -25 -24
-19 -3 -23 1 -23 21 0 14 6 27 13 30 22 7 38 -5 35 -27z m-3788 -33 c0 -54 1
-55 18 -40 19 17 78 23 98 9 23 -15 34 -53 34 -121 0 -69 -1 -71 -25 -71 -24
0 -25 2 -25 68 0 70 -10 92 -42 92 -37 0 -58 -36 -58 -101 0 -57 -1 -60 -22
-57 -22 3 -23 7 -26 127 -1 69 0 131 2 138 3 7 15 13 26 13 18 0 20 -6 20 -57z
m905 30 c7 -29 6 -194 -2 -230 -3 -14 -13 -23 -24 -23 -18 0 -19 9 -19 140 0
131 1 140 19 140 12 0 21 -10 26 -27z m575 -23 c0 -47 1 -50 19 -40 23 12 81
13 97 2 23 -15 34 -53 34 -121 0 -69 -1 -71 -25 -71 -24 0 -25 2 -25 64 0 88
-27 116 -78 80 -19 -13 -22 -24 -22 -80 0 -62 -1 -64 -25 -64 l-25 0 0 140 0
140 25 0 c23 0 25 -3 25 -50z m2412 -90 c0 -130 0 -135 -21 -138 -21 -3 -21 0
-21 138 0 137 1 141 21 138 19 -3 20 -10 21 -138z m-1584 -7 l3 -133 -26 0
-25 0 0 110 0 110 -30 0 c-22 0 -30 5 -30 18 0 28 10 33 60 30 l45 -3 3 -132z
m142 2 l0 -135 -25 0 -25 0 0 110 0 110 -25 0 c-20 0 -25 5 -25 25 0 23 3 25
50 25 l50 0 0 -135z m275 124 c102 -28 160 -163 98 -231 -20 -22 -81 -24 -89
-3 -5 13 -8 13 -27 0 -88 -62 -174 65 -100 147 19 21 83 24 101 6 9 -9 12 -9
12 0 0 7 9 12 20 12 18 0 20 -7 20 -69 0 -74 13 -98 37 -66 31 44 9 115 -47
153 -67 46 -176 10 -201 -65 -27 -82 31 -163 117 -163 25 0 54 4 64 10 14 7
20 6 24 -7 8 -19 -7 -30 -51 -39 -76 -14 -154 23 -183 89 -25 55 -25 83 3 137
25 50 59 78 108 90 48 11 49 11 94 -1z m-2360 -82 c19 -16 28 -35 32 -68 5
-39 2 -48 -25 -77 -26 -27 -37 -32 -77 -32 -83 0 -129 75 -94 154 23 50 118
63 164 23z m115 -39 c12 -35 25 -66 29 -71 4 -4 17 24 30 63 20 62 25 70 48
70 20 0 24 -4 18 -17 -4 -10 -21 -55 -37 -100 -28 -76 -33 -83 -58 -83 -25 0
-30 7 -58 83 -16 45 -33 90 -37 100 -6 13 -2 17 18 17 21 0 27 -9 47 -62z
m300 42 c17 -17 20 -33 20 -99 l0 -79 -72 0 c-81 -1 -108 13 -108 56 0 42 27
62 82 62 42 0 49 3 46 18 -3 14 -13 17 -55 16 -36 -1 -53 3 -57 13 -14 34 111
46 144 13z m315 10 c-3 -5 -2 -10 4 -10 5 0 13 5 16 10 3 6 15 10 26 10 30 0
23 -33 -11 -52 -29 -16 -30 -20 -30 -83 0 -63 -1 -65 -25 -65 l-25 0 0 100 0
100 26 0 c14 0 23 -4 19 -10z m258 -10 c48 -38 44 -130 -7 -165 -25 -18 -89
-20 -119 -3 -35 18 -46 40 -47 90 0 40 4 50 31 72 39 33 104 36 142 6z m477 0
c17 -17 20 -33 20 -99 l0 -78 -75 -1 c-83 -1 -105 11 -105 55 0 43 26 63 82
63 35 0 48 4 48 14 0 20 -34 29 -75 22 -21 -4 -36 -2 -41 5 -23 38 110 55 146
19z m120 10 c0 -7 6 -7 19 0 23 12 81 13 97 2 23 -15 34 -53 34 -121 0 -69 -1
-71 -25 -71 -24 0 -25 2 -25 64 0 90 -34 122 -80 76 -16 -16 -20 -33 -20 -80
0 -57 -1 -60 -25 -60 l-25 0 0 100 0 100 25 0 c14 0 25 -5 25 -10z m1120 -97
c0 -57 -5 -113 -11 -125 -15 -28 -74 -51 -113 -42 -46 10 -66 23 -60 39 4 10
17 12 55 8 54 -6 79 6 79 40 0 16 -3 18 -12 9 -22 -22 -86 -14 -113 13 -35 34
-35 106 -1 140 22 22 33 24 100 23 l76 -1 0 -104z m105 97 c-3 -5 -2 -10 4
-10 5 0 13 5 16 10 10 17 83 12 103 -7 16 -17 18 -17 35 0 25 25 89 23 113 -4
14 -16 20 -40 23 -100 l3 -79 -26 0 c-25 0 -26 2 -26 62 0 88 -35 123 -80 78
-16 -16 -20 -33 -20 -80 0 -57 -1 -60 -25 -60 -24 0 -25 2 -25 70 0 65 -2 71
-25 82 -21 9 -28 8 -45 -7 -16 -14 -20 -31 -20 -82 0 -61 -1 -63 -25 -63 l-25
0 0 100 0 100 26 0 c14 0 23 -4 19 -10z m481 2 c23 -15 34 -53 34 -120 l0 -69
-80 -1 c-71 -1 -81 1 -95 20 -36 53 -2 98 75 98 51 0 60 6 38 28 -15 15 -53
16 -79 2 -27 -15 -40 17 -14 36 20 15 102 19 121 6z m134 -92 l0 -100 -25 0
-25 0 0 100 0 100 25 0 25 0 0 -100z m395 86 c24 -17 13 -52 -13 -41 -40 17
-63 17 -82 0 -24 -22 -26 -68 -4 -89 18 -19 65 -21 82 -4 8 8 15 8 28 -3 15
-12 14 -15 -6 -31 -14 -12 -39 -18 -70 -18 -42 0 -52 4 -74 31 -18 21 -26 42
-26 69 0 27 8 48 26 69 22 27 33 31 73 31 26 0 56 -6 66 -14z m208 2 c35 -18
46 -40 47 -87 0 -65 -36 -101 -101 -101 -71 0 -104 31 -104 100 0 44 4 55 28
76 31 27 92 33 130 12z m137 -4 c0 -14 1 -14 16 0 20 21 88 21 108 0 14 -14
18 -14 38 0 12 9 39 16 60 16 54 0 68 -26 68 -122 0 -77 0 -78 -25 -78 -24 0
-25 2 -25 68 0 88 -27 116 -72 75 -14 -12 -18 -31 -18 -80 0 -61 -1 -63 -25
-63 -24 0 -25 2 -25 64 0 86 -28 117 -75 82 -14 -10 -20 -30 -23 -80 -4 -62
-6 -66 -28 -66 -24 0 -24 1 -24 100 l0 100 25 0 c16 0 25 -6 25 -16z m-3532
-158 c2 -10 -1 -23 -7 -29 -15 -15 -46 16 -37 38 8 21 40 15 44 -9z m1182 8
c11 -12 10 -18 -4 -32 -16 -16 -18 -16 -31 2 -11 14 -12 23 -4 33 15 17 24 16
39 -3z m1808 -8 c2 -10 -1 -23 -7 -29 -15 -15 -46 16 -37 38 8 21 40 15 44 -9z
m-3665 -333 c-7 -2 -19 -2 -25 0 -7 3 -2 5 12 5 14 0 19 -2 13 -5z m17 -93 c0
-5 -15 -10 -32 -9 -28 0 -30 2 -13 9 28 12 45 12 45 0z m63 -9 c8 -33 -7 -44
-49 -36 -33 6 -36 8 -20 17 14 8 21 7 27 -3 6 -10 9 -6 9 14 0 31 25 38 33 8z
m-18 -81 c-3 -5 -13 -10 -21 -10 -8 0 -14 5 -14 10 0 6 9 10 21 10 11 0 17 -4
14 -10z m-105 -206 c0 -8 -4 -14 -10 -14 -5 0 -10 2 -10 4 0 2 -3 12 -6 20 -5
12 -2 15 10 10 9 -3 16 -12 16 -20z m0 -543 c0 -15 -28 -33 -46 -29 -17 3 -17
4 0 21 18 18 46 23 46 8z m-30 -90 c0 -6 -4 -13 -10 -16 -5 -3 -10 1 -10 9 0
9 5 16 10 16 6 0 10 -4 10 -9z m70 -41 c0 -5 -4 -10 -10 -10 -5 0 -10 5 -10
10 0 6 5 10 10 10 6 0 10 -4 10 -10z"/>
<path d="M2397 17639 c-41 -24 -61 -117 -36 -172 34 -75 159 -75 198 0 26 52
5 150 -38 173 -25 13 -101 13 -124 -1z"/>
<path d="M1820 17605 l0 -55 40 0 c42 0 80 26 80 55 0 29 -38 55 -80 55 l-40
0 0 -55z"/>
<path d="M3646 17553 c-10 -32 -21 -64 -23 -70 -4 -10 9 -13 47 -13 38 0 51 3
47 13 -2 6 -13 38 -23 70 -10 31 -21 57 -24 57 -3 0 -14 -26 -24 -57z"/>
<path d="M6914 17276 c-52 -23 -74 -61 -74 -125 0 -87 45 -140 118 -141 75 0
132 60 132 140 0 48 -26 102 -57 118 -34 19 -87 22 -119 8z"/>
<path d="M9626 17282 c-3 -3 -6 -65 -6 -139 l0 -133 45 0 c92 0 145 41 153
118 5 60 -17 116 -55 135 -29 16 -127 29 -137 19z"/>
<path d="M8347 17190 c-69 -54 -29 -180 56 -180 63 0 102 57 87 126 -16 69
-89 96 -143 54z"/>
<path d="M9042 17203 c-11 -4 -42 -54 -42 -68 0 -3 38 -5 85 -5 95 0 106 10
60 55 -23 24 -69 32 -103 18z"/>
<path d="M10078 17190 c-14 -11 -28 -29 -31 -40 -5 -19 -1 -20 79 -20 76 0 84
2 84 19 0 26 -46 61 -80 61 -15 0 -39 -9 -52 -20z"/>
<path d="M10825 17185 c-46 -45 -35 -55 60 -55 70 0 85 3 85 15 0 30 -47 65
-85 65 -25 0 -44 -8 -60 -25z"/>
<path d="M11425 17187 c-36 -31 -43 -91 -16 -134 32 -51 98 -56 141 -13 30 30
28 109 -5 144 -31 34 -83 35 -120 3z"/>
<path d="M11843 17186 c-24 -21 -28 -32 -28 -76 0 -44 4 -55 28 -76 37 -32 86
-32 121 1 21 20 26 33 26 75 0 41 -5 56 -25 75 -32 33 -84 33 -122 1z"/>
<path d="M12246 17189 c-14 -11 -26 -29 -26 -40 0 -17 8 -19 85 -19 47 0 85 3
85 6 0 12 -24 50 -39 61 -25 19 -76 15 -105 -8z"/>
<path d="M2425 17106 c-84 -38 -121 -153 -79 -242 47 -98 196 -113 261 -27 22
29 28 49 31 102 3 56 0 71 -20 100 -12 19 -35 43 -49 54 -34 25 -105 31 -144
13z"/>
<path d="M3641 17080 c-1 -3 -17 -49 -36 -102 l-35 -98 70 0 c50 0 70 4 69 13
0 13 -67 196 -68 187z"/>
<path d="M5270 15180 c0 -13 5 -20 13 -17 6 2 12 10 12 17 0 7 -6 15 -12 18
-8 2 -13 -5 -13 -18z"/>
<path d="M4638 13958 c6 -6 18 -8 28 -6 14 3 12 5 -9 10 -19 3 -25 2 -19 -4z"/>
<path d="M4622 13765 c-11 -13 -10 -15 7 -15 14 0 19 5 15 15 -7 18 -6 18 -22
0z"/>
<path d="M4635 13520 c3 -5 13 -10 21 -10 8 0 14 5 14 10 0 6 -9 10 -21 10
-11 0 -17 -4 -14 -10z"/>
<path d="M5167 13370 c-9 -11 -14 -20 -11 -20 13 0 44 21 44 30 0 16 -14 11
-33 -10z"/>
<path d="M5557 12786 c-6 -16 2 -28 14 -20 12 7 11 34 0 34 -5 0 -11 -6 -14
-14z"/>
<path d="M4600 12380 c0 -5 5 -10 10 -10 6 0 10 5 10 10 0 6 -4 10 -10 10 -5
0 -10 -4 -10 -10z"/>
<path d="M5785 11990 c-4 -6 -3 -16 3 -22 13 -13 23 4 13 21 -7 10 -10 10 -16
1z"/>
<path d="M9183 13770 c-141 -30 -261 -144 -298 -285 -56 -217 55 -440 255
-510 51 -18 177 -21 228 -6 55 16 115 56 164 109 81 86 109 164 109 295 -1
222 -148 388 -355 402 -34 2 -80 0 -103 -5z"/>
<path d="M7600 13565 l0 -215 158 0 c131 0 164 3 197 19 77 35 115 102 115
199 0 70 -17 116 -57 154 -52 50 -88 58 -258 58 l-155 0 0 -215z"/>
<path d="M10560 13565 l0 -215 169 0 c174 0 213 6 264 44 89 65 99 244 18 325
-52 52 -93 61 -285 61 l-166 0 0 -215z"/>
<path d="M3453 12563 c9 -2 25 -2 35 0 9 3 1 5 -18 5 -19 0 -27 -2 -17 -5z"/>
<path d="M4030 12519 c0 -5 5 -7 10 -4 6 3 10 8 10 11 0 2 -4 4 -10 4 -5 0
-10 -5 -10 -11z"/>
<path d="M4020 12468 l-25 -21 25 8 c14 4 34 14 45 21 19 14 19 14 0 14 -11
-1 -31 -10 -45 -22z"/>
<path d="M3950 12450 c0 -5 6 -10 14 -10 8 0 18 5 21 10 3 6 -3 10 -14 10 -12
0 -21 -4 -21 -10z"/>
<path d="M8474 12217 c-107 -28 -212 -117 -262 -225 -24 -51 -27 -68 -27 -172
0 -109 2 -119 32 -182 76 -162 236 -252 403 -228 129 18 232 98 293 228 30 63
32 73 32 182 0 110 -1 118 -33 182 -83 170 -265 259 -438 215z"/>
<path d="M11842 12220 c-102 -22 -220 -116 -266 -213 -102 -215 -12 -470 200
-569 116 -54 262 -39 366 37 97 71 155 182 165 314 13 176 -78 337 -232 407
-61 28 -164 39 -233 24z"/>
<path d="M5072 11693 c5 -25 28 -28 28 -4 0 12 -6 21 -16 21 -9 0 -14 -7 -12
-17z"/>
<path d="M5020 11670 c-8 -5 -12 -11 -9 -14 2 -3 11 -1 19 4 8 5 12 11 9 14
-2 3 -11 1 -19 -4z"/>
<path d="M5275 9649 c-4 -17 -5 -33 -2 -35 9 -9 37 27 37 47 0 31 -28 22 -35
-12z"/>
<path d="M5412 8880 c0 -14 2 -19 5 -12 2 6 2 18 0 25 -3 6 -5 1 -5 -13z"/>
<path d="M4872 6410 c0 -14 2 -19 5 -12 2 6 2 18 0 25 -3 6 -5 1 -5 -13z"/>
<path d="M3923 9080 c0 -25 2 -35 4 -22 2 12 2 32 0 45 -2 12 -4 2 -4 -23z"/>
<path d="M4000 9043 c0 -16 5 -35 10 -43 7 -11 10 -4 10 28 0 23 -4 42 -10 42
-5 0 -10 -12 -10 -27z"/>
<path d="M7897 9634 c-11 -11 3 -24 25 -24 17 0 18 2 8 15 -13 16 -23 19 -33
9z"/>
<path d="M8505 9240 c-3 -5 1 -10 9 -10 9 0 16 5 16 10 0 6 -4 10 -9 10 -6 0
-13 -4 -16 -10z"/>
<path d="M9072 7848 c6 -18 28 -21 28 -4 0 9 -7 16 -16 16 -9 0 -14 -5 -12
-12z"/>
<path d="M4564 4435 c-12 -9 -14 -14 -6 -15 7 0 20 7 28 15 20 19 4 20 -22 0z"/>
<path d="M4670 4380 c0 -5 5 -10 10 -10 6 0 10 5 10 10 0 6 -4 10 -10 10 -5 0
-10 -4 -10 -10z"/>
<path d="M4740 4350 c0 -5 5 -10 11 -10 5 0 7 5 4 10 -3 6 -8 10 -11 10 -2 0
-4 -4 -4 -10z"/>
<path d="M4078 4343 c7 -3 16 -2 19 1 4 3 -2 6 -13 5 -11 0 -14 -3 -6 -6z"/>
<path d="M4066 4241 c-4 -5 -2 -12 3 -15 5 -4 12 -2 15 3 4 5 2 12 -3 15 -5 4
-12 2 -15 -3z"/>
<path d="M4023 4210 c-1 -11 2 -20 8 -20 5 0 9 9 9 20 0 11 -4 20 -8 20 -4 0
-8 -9 -9 -20z"/>
<path d="M3666 3851 c-4 -7 -5 -15 -2 -18 9 -9 19 4 14 18 -4 11 -6 11 -12 0z"/>
<path d="M4718 3853 c7 -3 16 -2 19 1 4 3 -2 6 -13 5 -11 0 -14 -3 -6 -6z"/>
<path d="M3930 3620 c0 -5 5 -10 11 -10 5 0 7 5 4 10 -3 6 -8 10 -11 10 -2 0
-4 -4 -4 -10z"/>
<path d="M4120 3589 c0 -5 5 -7 10 -4 6 3 10 8 10 11 0 2 -4 4 -10 4 -5 0 -10
-5 -10 -11z"/>
<path d="M3538 3528 c7 -9 23 -13 42 -10 38 5 36 7 -14 16 -34 7 -38 5 -28 -6z"/>
<path d="M5985 3391 c-2 -4 1 -13 6 -21 8 -12 12 -12 16 -2 2 6 9 10 13 7 5
-3 11 -1 14 4 3 5 -6 11 -19 14 -14 2 -27 1 -30 -2z"/>
<path d="M6110 3236 c0 -8 7 -16 15 -20 13 -4 14 -2 5 14 -13 23 -20 26 -20 6z"/>
<path d="M6132 3181 c2 -14 9 -26 16 -29 17 -5 15 10 -3 34 -15 18 -15 18 -13
-5z"/>
<path d="M6031 3121 c-37 -10 -35 -26 3 -28 41 -3 96 21 71 31 -20 7 -41 6
-74 -3z"/>
<path d="M6145 3110 c-3 -5 -2 -10 4 -10 5 0 13 5 16 10 3 6 2 10 -4 10 -5 0
-13 -4 -16 -10z"/>
<path d="M6765 2540 c-3 -5 -2 -10 4 -10 5 0 13 5 16 10 3 6 2 10 -4 10 -5 0
-13 -4 -16 -10z"/>
<path d="M2175 2870 c3 -5 8 -10 11 -10 2 0 4 5 4 10 0 6 -5 10 -11 10 -5 0
-7 -4 -4 -10z"/>
<path d="M2190 2826 c0 -14 4 -27 8 -30 5 -3 6 8 4 25 -5 35 -12 38 -12 5z"/>
<path d="M3170 2969 c0 -5 5 -7 10 -4 6 3 10 8 10 11 0 2 -4 4 -10 4 -5 0 -10
-5 -10 -11z"/>
<path d="M3908 2823 c7 -3 16 -2 19 1 4 3 -2 6 -13 5 -11 0 -14 -3 -6 -6z"/>
<path d="M4115 2780 c3 -5 8 -10 11 -10 2 0 4 5 4 10 0 6 -5 10 -11 10 -5 0
-7 -4 -4 -10z"/>
<path d="M6003 2613 c9 -2 25 -2 35 0 9 3 1 5 -18 5 -19 0 -27 -2 -17 -5z"/>
<path d="M5940 2584 l-25 -14 28 0 c16 0 35 7 43 15 14 13 13 15 -3 14 -10 -1
-29 -7 -43 -15z"/>
<path d="M6274 2457 c-12 -11 -36 -32 -54 -48 -17 -16 -38 -29 -46 -29 -8 0
-14 -9 -14 -20 0 -11 3 -20 8 -20 20 2 76 37 86 55 6 11 19 33 30 48 22 34 18
40 -10 14z"/>
<path d="M10522 1648 c-36 -36 4 -101 48 -78 37 20 21 90 -20 90 -9 0 -21 -5
-28 -12z"/>
<path d="M8135 1656 c-21 -15 -25 -67 -5 -90 17 -22 63 -20 83 2 50 55 -19
132 -78 88z"/>
<path d="M8558 1589 c-23 -13 -12 -39 17 -39 36 0 55 11 55 31 0 14 -7 19 -27
19 -16 0 -36 -5 -45 -11z"/>
<path d="M9125 1656 c-21 -15 -25 -67 -5 -90 17 -22 63 -20 83 2 50 55 -19
132 -78 88z"/>
<path d="M9605 1587 c-23 -18 -11 -37 24 -37 29 0 51 16 51 37 0 17 -51 17
-75 0z"/>
<path d="M10804 1646 c-13 -22 -14 -29 -2 -53 15 -31 59 -43 84 -22 17 14 19
70 2 87 -21 21 -66 14 -84 -12z"/>
<path d="M11447 1593 c-28 -7 -16 -38 16 -41 31 -4 57 12 57 34 0 14 -34 17
-73 7z"/>
<path d="M12177 1652 c-37 -41 -11 -102 42 -102 36 0 54 22 53 63 -1 53 -61
77 -95 39z"/>
<path d="M8270 960 c-9 -6 -10 -10 -3 -10 6 0 15 5 18 10 8 12 4 12 -15 0z"/>
<path d="M8210 900 c0 -5 5 -10 10 -10 6 0 10 5 10 10 0 6 -4 10 -10 10 -5 0
-10 -4 -10 -10z"/>
<path d="M8280 900 c0 -5 5 -10 10 -10 6 0 10 5 10 10 0 6 -4 10 -10 10 -5 0
-10 -4 -10 -10z"/>
<path d="M8290 773 c0 -5 5 -15 10 -23 8 -12 10 -11 10 8 0 12 -4 22 -10 22
-5 0 -10 -3 -10 -7z"/>
<path d="M8210 691 c0 -5 5 -13 10 -16 6 -3 10 -2 10 4 0 5 -4 13 -10 16 -5 3
-10 2 -10 -4z"/>
<path d="M8330 670 c0 -5 5 -10 10 -10 6 0 10 5 10 10 0 6 -4 10 -10 10 -5 0
-10 -4 -10 -10z"/>
<path d="M8341 604 c0 -11 3 -14 6 -6 3 7 2 16 -1 19 -3 4 -6 -2 -5 -13z"/>
<path d="M8355 551 c-4 -7 -1 -18 5 -26 6 -8 9 -19 6 -24 -4 -5 -2 -12 4 -16
12 -8 13 44 1 64 -6 9 -10 10 -16 2z"/>
<path d="M8385 420 c3 -5 8 -10 11 -10 2 0 4 5 4 10 0 6 -5 10 -11 10 -5 0 -7
-4 -4 -10z"/>
<path d="M8188 40 c12 -5 22 -14 22 -20 0 -5 7 -10 15 -10 19 0 19 7 1 26 -8
8 -25 14 -38 13 l-23 0 23 -9z"/>
</g>
</svg>
